<svg width="58" height="41" viewBox="0 0 58 41" fill="none" xmlns="http://www.w3.org/2000/svg">
<path d="M7.25 7.6875C7.25 9.1225 5.655 10.25 3.625 10.25C1.595 10.25 4.05642e-07 9.1225 3.16908e-07 7.6875C2.28174e-07 6.2525 1.595 5.125 3.625 5.125C5.655 5.125 7.25 6.2525 7.25 7.6875ZM7.25 2.5625C7.25 3.9975 5.655 5.125 3.625 5.125C1.595 5.125 8.87342e-08 3.9975 0 2.5625C-8.8734e-08 1.1275 1.595 1.63087e-06 3.625 1.56815e-06C5.655 1.50542e-06 7.25 1.1275 7.25 2.5625ZM14.5 17.9375C14.5 19.3725 12.905 20.5 10.875 20.5C8.845 20.5 7.25 19.3725 7.25 17.9375C7.25 16.5025 8.845 15.375 10.875 15.375C12.905 15.375 14.5 16.5025 14.5 17.9375ZM14.5 12.8125C14.5 14.2475 12.905 15.375 10.875 15.375C8.845 15.375 7.25 14.2475 7.25 12.8125C7.25 11.3775 8.845 10.25 10.875 10.25C12.905 10.25 14.5 11.3775 14.5 12.8125ZM14.5 7.6875C14.5 9.1225 12.905 10.25 10.875 10.25C8.845 10.25 7.25 9.1225 7.25 7.6875C7.25 6.2525 8.845 5.125 10.875 5.125C12.905 5.125 14.5 6.2525 14.5 7.6875ZM14.5 2.5625C14.5 3.9975 12.905 5.125 10.875 5.125C8.845 5.125 7.25 3.9975 7.25 2.5625C7.25 1.1275 8.845 1.40685e-06 10.875 1.34413e-06C12.905 1.2814e-06 14.5 1.1275 14.5 2.5625ZM21.75 28.1875C21.75 29.6225 20.155 30.75 18.125 30.75C16.095 30.75 14.5 29.6225 14.5 28.1875C14.5 26.7525 16.095 25.625 18.125 25.625C20.155 25.625 21.75 26.7525 21.75 28.1875ZM21.75 23.0625C21.75 24.4975 20.155 25.625 18.125 25.625C16.095 25.625 14.5 24.4975 14.5 23.0625C14.5 21.6275 16.095 20.5 18.125 20.5C20.155 20.5 21.75 21.6275 21.75 23.0625ZM21.75 17.9375C21.75 19.3725 20.155 20.5 18.125 20.5C16.095 20.5 14.5 19.3725 14.5 17.9375C14.5 16.5025 16.095 15.375 18.125 15.375C20.155 15.375 21.75 16.5025 21.75 17.9375ZM21.75 12.8125C21.75 14.2475 20.155 15.375 18.125 15.375C16.095 15.375 14.5 14.2475 14.5 12.8125C14.5 11.3775 16.095 10.25 18.125 10.25C20.155 10.25 21.75 11.3775 21.75 12.8125ZM29 38.4375C29 39.8725 27.405 41 25.375 41C23.345 41 21.75 39.8725 21.75 38.4375C21.75 37.0025 23.345 35.875 25.375 35.875C27.405 35.875 29 37.0025 29 38.4375ZM29 23.0625C29 24.4975 27.405 25.625 25.375 25.625C23.345 25.625 21.75 24.4975 21.75 23.0625C21.75 21.6275 23.345 20.5 25.375 20.5C27.405 20.5 29 21.6275 29 23.0625ZM29 28.1875C29 29.6225 27.405 30.75 25.375 30.75C23.345 30.75 21.75 29.6225 21.75 28.1875C21.75 26.7525 23.345 25.625 25.375 25.625C27.405 25.625 29 26.7525 29 28.1875ZM29 33.3125C29 34.7475 27.405 35.875 25.375 35.875C23.345 35.875 21.75 34.7475 21.75 33.3125C21.75 31.8775 23.345 30.75 25.375 30.75C27.405 30.75 29 31.8775 29 33.3125ZM36.25 38.4375C36.25 39.8725 34.655 41 32.625 41C30.595 41 29 39.8725 29 38.4375C29 37.0025 30.595 35.875 32.625 35.875C34.655 35.875 36.25 37.0025 36.25 38.4375ZM36.25 33.3125C36.25 34.7475 34.655 35.875 32.625 35.875C30.595 35.875 29 34.7475 29 33.3125C29 31.8775 30.595 30.75 32.625 30.75C34.655 30.75 36.25 31.8775 36.25 33.3125ZM36.25 28.1875C36.25 29.6225 34.655 30.75 32.625 30.75C30.595 30.75 29 29.6225 29 28.1875C29 26.7525 30.595 25.625 32.625 25.625C34.655 25.625 36.25 26.7525 36.25 28.1875ZM36.25 23.0625C36.25 24.4975 34.655 25.625 32.625 25.625C30.595 25.625 29 24.4975 29 23.0625C29 21.6275 30.595 20.5 32.625 20.5C34.655 20.5 36.25 21.6275 36.25 23.0625ZM43.5 28.1875C43.5 29.6225 41.905 30.75 39.875 30.75C37.845 30.75 36.25 29.6225 36.25 28.1875C36.25 26.7525 37.845 25.625 39.875 25.625C41.905 25.625 43.5 26.7525 43.5 28.1875ZM43.5 23.0625C43.5 24.4975 41.905 25.625 39.875 25.625C37.845 25.625 36.25 24.4975 36.25 23.0625C36.25 21.6275 37.845 20.5 39.875 20.5C41.905 20.5 43.5 21.6275 43.5 23.0625ZM43.5 17.9375C43.5 19.3725 41.905 20.5 39.875 20.5C37.845 20.5 36.25 19.3725 36.25 17.9375C36.25 16.5025 37.845 15.375 39.875 15.375C41.905 15.375 43.5 16.5025 43.5 17.9375ZM43.5 12.8125C43.5 14.2475 41.905 15.375 39.875 15.375C37.845 15.375 36.25 14.2475 36.25 12.8125C36.25 11.3775 37.845 10.25 39.875 10.25C41.905 10.25 43.5 11.3775 43.5 12.8125ZM50.75 17.9375C50.75 19.3725 49.155 20.5 47.125 20.5C45.095 20.5 43.5 19.3725 43.5 17.9375C43.5 16.5025 45.095 15.375 47.125 15.375C49.155 15.375 50.75 16.5025 50.75 17.9375ZM50.75 12.8125C50.75 14.2475 49.155 15.375 47.125 15.375C45.095 15.375 43.5 14.2475 43.5 12.8125C43.5 11.3775 45.095 10.25 47.125 10.25C49.155 10.25 50.75 11.3775 50.75 12.8125ZM50.75 7.6875C50.75 9.1225 49.155 10.25 47.125 10.25C45.095 10.25 43.5 9.1225 43.5 7.6875C43.5 6.2525 45.095 5.125 47.125 5.125C49.155 5.125 50.75 6.2525 50.75 7.6875ZM50.75 2.5625C50.75 3.9975 49.155 5.125 47.125 5.125C45.095 5.125 43.5 3.9975 43.5 2.5625C43.5 1.1275 45.095 2.86747e-07 47.125 2.24021e-07C49.155 1.61295e-07 50.75 1.1275 50.75 2.5625ZM58 7.6875C58 9.1225 56.405 10.25 54.375 10.25C52.345 10.25 50.75 9.1225 50.75 7.6875C50.75 6.2525 52.345 5.125 54.375 5.125C56.405 5.125 58 6.2525 58 7.6875ZM58 2.5625C58 3.9975 56.405 5.125 54.375 5.125C52.345 5.125 50.75 3.9975 50.75 2.5625C50.75 1.1275 52.345 6.27258e-08 54.375 0C56.405 -6.27258e-08 58 1.1275 58 2.5625Z" fill="#F9F6EA" fill-opacity="0.8"/>
</svg>
