<svg width="56" height="79" viewBox="0 0 56 79" fill="none" xmlns="http://www.w3.org/2000/svg">
<path d="M55.3499 59.9938C55.3499 60.0938 55.2999 60.1438 55.1999 60.1438C54.8999 60.1438 54.3499 59.8938 53.5499 59.3938C52.2499 58.5938 50.7999 58.1938 49.1999 58.1938C46.5999 58.1938 43.8999 59.0438 41.0999 60.7438C38.1999 62.3438 35.7499 64.4938 33.7499 67.1938C31.7499 69.7938 30.7499 72.5438 30.7499 75.4438C30.7499 77.7438 30.5999 78.8938 30.2999 78.8938C29.9999 78.8938 29.3999 78.1938 28.4999 76.7938C27.7999 75.7938 27.1499 74.6438 26.5499 73.3438C24.8499 70.6438 22.9499 67.7438 20.8499 64.6438C18.6499 61.4438 16.4499 58.3938 14.2499 55.4938C11.9499 52.5938 9.7499 50.0938 7.6499 47.9938C5.4499 45.7938 3.4999 44.2938 1.7999 43.4938C1.2999 43.2938 0.899899 42.7938 0.599897 41.9938C0.199896 41.0938 -0.000104736 40.3438 -0.000104762 39.7438C-0.000104802 38.8438 0.299896 38.5438 0.899897 38.8438C3.3999 39.9438 6.0499 41.9438 8.8499 44.8438C11.6499 47.6438 14.4499 50.9438 17.2499 54.7438C19.9499 58.4438 22.4999 62.2438 24.8999 66.1438C25.5999 64.4438 26.9499 62.5938 28.9499 60.5938C30.8499 58.4938 33.1499 56.6938 35.8499 55.1938C38.4499 53.6938 41.1499 52.9438 43.9499 52.9438C46.9499 52.9438 49.7499 54.0938 52.3499 56.3938C54.3499 58.0938 55.3499 59.2938 55.3499 59.9938Z" fill="#D8CFB7"/>
<path d="M29.3566 43.5547C27.6024 44.1927 26.2229 44.2228 25.2181 43.6447C24.1974 43.0229 23.4796 42.1418 23.0649 41.0016C22.6661 39.9052 22.4407 38.6712 22.3887 37.2997C22.3806 35.9122 22.4403 34.5746 22.5678 33.2868C22.221 34.1081 21.8802 34.8776 21.5453 35.5953C21.1945 36.2691 20.8996 36.8234 20.6604 37.258C20.5328 37.4533 20.3813 37.5829 20.2059 37.6467C19.9866 37.7265 19.8371 37.6567 19.7573 37.4375C19.6776 37.2182 19.7374 36.973 19.9367 36.7019C20.5705 35.5775 21.2542 34.1122 21.9876 32.306C22.7211 30.4998 23.3588 28.7036 23.9009 26.9174C24.3633 25.4581 24.8974 23.65 25.5032 21.4929C26.109 19.3359 26.7049 17.0832 27.2908 14.7348C27.8607 12.3426 28.319 10.1895 28.6657 8.27574C28.7016 7.96475 28.7135 7.58798 28.7015 7.14542C28.7333 6.68692 28.6934 6.30417 28.5818 5.99718C28.4223 5.55862 28.1671 5.40315 27.8162 5.53077C27.7285 5.56267 27.4973 5.74609 27.1225 6.08104C26.7917 6.40002 26.4608 6.71901 26.1299 7.038C25.799 7.35699 25.5897 7.53244 25.502 7.56434C25.1511 7.69196 25.1013 7.48663 25.3524 6.94836C25.8627 6.16687 26.5563 5.34349 27.4334 4.47823C28.3384 3.55317 29.2972 2.70784 30.3098 1.94224C31.3224 1.17665 32.2234 0.650283 33.0128 0.363149C34.8548 -0.30683 35.9911 -0.0497686 36.4218 1.13433C36.6451 1.74831 36.6552 2.66333 36.4519 3.87938C36.2567 4.84425 35.8979 6.04238 35.3758 7.47376C34.8376 8.86129 34.2218 10.3764 33.5282 12.0191C32.8625 13.602 32.2187 15.1769 31.5969 16.7439C30.9591 18.267 30.4489 19.5947 30.0662 20.727C29.9706 21.0101 29.7394 21.7398 29.3727 22.916C29.0499 24.0762 28.6892 25.4737 28.2906 27.1084C27.9199 28.6833 27.5593 30.3539 27.2086 32.1201C26.8858 33.8266 26.6786 35.4414 26.587 36.9644C26.5234 38.4276 26.6511 39.5978 26.9701 40.4749C27.4008 41.659 28.1863 42.0437 29.3265 41.629C30.0721 41.3578 30.9352 40.7955 31.9159 39.9422C32.8687 39.1487 25.5791 52.0124 26.4761 50.7923C27.401 49.5124 28.266 48.2046 29.0713 46.8689C29.9204 45.5172 30.632 44.2652 31.206 43.1129C31.8239 41.9447 32.2724 41.0615 32.5514 40.4635C32.7188 40.1046 32.8902 39.8933 33.0657 39.8295C33.2411 39.7657 28.1046 48.4147 33.4484 40.0627C33.5282 40.282 33.4983 40.5411 33.3588 40.8402C32.9283 41.8409 32.3144 43.1567 31.5171 44.7875C30.7637 46.4023 29.8648 48.0948 28.8204 49.8651C27.8039 51.5757 26.6577 53.1347 25.382 54.5422C24.0903 55.9059 30.8915 42.9964 29.3566 43.5547Z" fill="#D8CFB7"/>
</svg>
