<svg width="56" height="79" viewBox="0 0 56 79" fill="none" xmlns="http://www.w3.org/2000/svg">
<path d="M55.35 59.9938C55.35 60.0938 55.3 60.1438 55.2 60.1438C54.9 60.1438 54.35 59.8938 53.55 59.3938C52.25 58.5938 50.8 58.1938 49.2 58.1938C46.6 58.1938 43.9 59.0438 41.1 60.7438C38.2 62.3438 35.75 64.4938 33.75 67.1938C31.75 69.7938 30.75 72.5438 30.75 75.4438C30.75 77.7438 30.6 78.8938 30.3 78.8938C30 78.8938 29.4 78.1938 28.5 76.7938C27.8 75.7938 27.15 74.6438 26.55 73.3438C24.85 70.6438 22.95 67.7438 20.85 64.6438C18.65 61.4438 16.45 58.3938 14.25 55.4938C11.95 52.5938 9.75002 50.0938 7.65002 47.9938C5.45002 45.7938 3.50002 44.2938 1.80002 43.4938C1.30002 43.2938 0.900021 42.7938 0.600019 41.9938C0.200018 41.0938 1.73342e-05 40.3438 1.73079e-05 39.7438C1.72686e-05 38.8438 0.300018 38.5438 0.900019 38.8438C3.40002 39.9438 6.05002 41.9438 8.85002 44.8438C11.65 47.6438 14.45 50.9438 17.25 54.7438C19.95 58.4438 22.5 62.2438 24.9 66.1438C25.6 64.4438 26.95 62.5938 28.95 60.5938C30.85 58.4938 33.15 56.6938 35.85 55.1938C38.45 53.6938 41.15 52.9438 43.95 52.9438C46.95 52.9438 49.75 54.0938 52.35 56.3938C54.35 58.0938 55.35 59.2938 55.35 59.9938Z" fill="#F9F6EA" fill-opacity="0.8"/>
<path d="M29.3568 43.5547C27.6026 44.1927 26.2231 44.2228 25.2183 43.6447C24.1976 43.0229 23.4799 42.1418 23.0651 41.0016C22.6663 39.9052 22.4409 38.6712 22.389 37.2997C22.3809 35.9122 22.4406 34.5746 22.568 33.2868C22.2213 34.1081 21.8804 34.8776 21.5456 35.5953C21.1948 36.2691 20.8998 36.8234 20.6606 37.258C20.5331 37.4533 20.3816 37.5829 20.2061 37.6467C19.9869 37.7265 19.8373 37.6567 19.7576 37.4375C19.6778 37.2182 19.7376 36.973 19.9369 36.7019C20.5708 35.5775 21.2544 34.1122 21.9879 32.306C22.7213 30.4998 23.3591 28.7036 23.9011 26.9174C24.3635 25.4581 24.8976 23.65 25.5034 21.4929C26.1093 19.3359 26.7051 17.0832 27.291 14.7348C27.8609 12.3426 28.3193 10.1895 28.666 8.27574C28.7018 7.96475 28.7137 7.58798 28.7017 7.14542C28.7336 6.68692 28.6937 6.30417 28.582 5.99718C28.4225 5.55862 28.1673 5.40315 27.8165 5.53077C27.7288 5.56267 27.4975 5.74609 27.1228 6.08104C26.7919 6.40002 26.461 6.71901 26.1301 7.038C25.7992 7.35699 25.5899 7.53244 25.5022 7.56434C25.1514 7.69196 25.1015 7.48663 25.3526 6.94836C25.8629 6.16687 26.5566 5.34349 27.4336 4.47823C28.3386 3.55317 29.2974 2.70784 30.31 1.94224C31.3227 1.17665 32.2237 0.650283 33.0131 0.363149C34.855 -0.30683 35.9913 -0.0497686 36.422 1.13433C36.6454 1.74831 36.6554 2.66333 36.4522 3.87938C36.2569 4.84425 35.8982 6.04238 35.376 7.47376C34.8379 8.86129 34.222 10.3764 33.5284 12.0191C32.8627 13.602 32.219 15.1769 31.5971 16.7439C30.9594 18.267 30.4491 19.5947 30.0665 20.727C29.9708 21.0101 29.7396 21.7398 29.3729 22.916C29.0501 24.0762 28.6894 25.4737 28.2908 27.1084C27.9202 28.6833 27.5595 30.3539 27.2088 32.1201C26.886 33.8266 26.6788 35.4414 26.5873 36.9644C26.5236 38.4276 26.6513 39.5978 26.9703 40.4749C27.401 41.659 28.1865 42.0437 29.3268 41.629C30.0723 41.3578 30.9354 40.7955 31.9162 39.9422C32.869 39.1487 25.5794 52.0124 26.4764 50.7923C27.4012 49.5124 28.2663 48.2046 29.0715 46.8689C29.9207 45.5172 30.6322 44.2652 31.2063 43.1129C31.8241 41.9447 32.2726 41.0615 32.5516 40.4635C32.7191 40.1046 32.8905 39.8933 33.0659 39.8295C33.2413 39.7657 28.1049 48.4147 33.4487 40.0627C33.5284 40.282 33.4986 40.5411 33.359 40.8402C32.9285 41.8409 32.3146 43.1567 31.5174 44.7875C30.764 46.4023 29.8651 48.0948 28.8206 49.8651C27.8041 51.5757 26.658 53.1347 25.3823 54.5422C24.0906 55.9059 30.8918 42.9964 29.3568 43.5547Z" fill="#F9F6EA" fill-opacity="0.8"/>
</svg>
