<svg width="67" height="44" viewBox="0 0 67 44" fill="none" xmlns="http://www.w3.org/2000/svg">
<g clip-path="url(#clip0_191_64)">
<path d="M19.3896 -5.48079e-05C21.1996 -0.0335306 23.007 0.151319 24.7723 0.550461C26.2587 0.873728 27.67 1.47527 28.931 2.32312C30.0957 3.16621 31.0172 4.29967 31.603 5.60971C32.2764 7.22062 32.6012 8.95483 32.5564 10.6992C32.6328 12.6146 32.1418 14.51 31.1443 16.1493C30.0951 17.6976 28.6447 18.9341 26.947 19.7277C29.2508 20.3464 31.2575 21.7636 32.6061 23.7244C33.9007 25.8021 34.5515 28.214 34.4768 30.6582C34.5195 32.607 34.115 34.5398 33.2941 36.3092C32.5354 37.8528 31.4244 39.198 30.0501 40.2372C28.6352 41.2649 27.043 42.0253 25.3526 42.4805C23.5996 42.9636 21.7887 43.2062 19.9699 43.2017H0V-5.48079e-05H19.3896ZM18.2373 17.4733C19.6594 17.5317 21.0593 17.1076 22.2081 16.2704C22.7582 15.7826 23.1862 15.1733 23.4577 14.4913C23.7293 13.8092 23.8369 13.0734 23.7721 12.3425C23.8089 11.4889 23.6382 10.639 23.2747 9.86519C22.9663 9.24906 22.4867 8.7341 21.8931 8.38155C21.2918 7.99348 20.6162 7.73386 19.9091 7.61909C19.1418 7.47103 18.361 7.40368 17.5797 7.41815H9.04681V17.5119H18.2373V17.4733ZM18.7347 35.8661C19.5947 35.8777 20.453 35.7852 21.2907 35.5908C22.0562 35.4224 22.7822 35.1094 23.4294 34.6687C24.0635 34.2283 24.5757 33.6356 24.9188 32.9456C25.3166 32.0657 25.4993 31.1045 25.4521 30.1407C25.5383 29.2624 25.4216 28.3761 25.1107 27.5497C24.7999 26.7233 24.3032 25.9788 23.6588 25.3732C22.2929 24.3711 20.619 23.8747 18.9254 23.9694H9.04681V35.8661H18.7347Z" fill="#D8CFB7"/>
<path d="M47.3618 35.7064C48.0718 36.3621 48.9083 36.867 49.8203 37.1907C50.7323 37.5144 51.7009 37.6499 52.6671 37.5892C54.199 37.6278 55.701 37.1635 56.9419 36.268C57.9513 35.6141 58.7158 34.6465 59.1165 33.5154H66.3313C65.5626 36.7354 63.6853 39.5853 61.0259 41.5694C58.4747 43.2563 55.4597 44.1106 52.3991 44.0137C50.2148 44.0423 48.0469 43.6332 46.0244 42.8109C44.1948 42.0508 42.5539 40.9019 41.2163 39.4445C39.8838 37.9173 38.8602 36.148 38.2016 34.2338C37.4625 32.0942 37.1007 29.8433 37.1323 27.5808C37.1188 25.3563 37.4928 23.1462 38.2376 21.049C39.2382 18.0985 41.1513 15.5397 43.7025 13.7396C46.2537 11.9395 49.3117 10.9908 52.4378 11.0296C54.7458 10.9815 57.028 11.5196 59.0696 12.593C60.9149 13.601 62.5068 15.0127 63.7256 16.7219C64.9723 18.5154 65.8659 20.5283 66.359 22.6537C66.8997 24.9361 67.0925 27.2865 66.9309 29.626H45.4413C45.2672 31.824 45.9556 34.0037 47.3618 35.7064ZM56.7899 19.2763C56.1885 18.6771 55.4652 18.2133 54.6688 17.9161C53.8723 17.6188 53.0211 17.4951 52.1725 17.5532C51.0468 17.5104 49.9292 17.7589 48.9285 18.2744C48.1352 18.7094 47.4349 19.2948 46.8671 19.9975C46.3639 20.6563 45.989 21.4032 45.7618 22.1995C45.5571 22.8637 45.4292 23.5489 45.3805 24.242H58.691C58.575 22.4353 57.9144 20.7056 56.7954 19.2791L56.7899 19.2763Z" fill="#D8CFB7"/>
<path d="M60.3434 2.88477H43.6646V7.132H60.3434V2.88477Z" fill="#D8CFB7"/>
</g>
<defs>
<clipPath id="clip0_191_64">
<rect width="67" height="44" fill="white"/>
</clipPath>
</defs>
</svg>
