<svg width="63" height="63" viewBox="0 0 63 63" fill="none" xmlns="http://www.w3.org/2000/svg">
<path d="M31.5 2.625C15.5479 2.625 2.625 15.5479 2.625 31.5C2.625 44.2759 10.8911 55.0699 22.3676 58.8945C23.8114 59.1465 24.3521 58.2829 24.3521 57.5242C24.3521 56.8365 24.318 54.5632 24.318 52.1456C17.0625 53.4817 15.1856 50.3764 14.6081 48.7541C14.2826 47.922 12.8756 45.36 11.6498 44.6749C10.6391 44.1315 9.19275 42.798 11.613 42.7613C13.8862 42.7245 15.5111 44.8534 16.0519 45.7222C18.6506 50.0876 22.8008 48.8618 24.4624 48.1031C24.7144 46.2263 25.473 44.9636 26.3025 44.2418C19.8765 43.5199 13.1644 41.0288 13.1644 29.9827C13.1644 26.8432 14.2826 24.2445 16.1254 22.2232C15.834 21.5014 14.8234 18.543 16.4141 14.5714C16.4141 14.5714 18.8318 13.8154 24.3521 17.5324C26.7027 16.8802 29.1315 16.5525 31.5709 16.5585C34.0279 16.5585 36.4823 16.8814 38.7896 17.5324C44.3126 13.7786 46.7303 14.5714 46.7303 14.5714C48.3184 18.543 47.3104 21.5014 47.0216 22.2232C48.8618 24.2445 49.98 26.8091 49.98 29.9827C49.98 41.0655 43.2311 43.5199 36.8051 44.2418C37.8525 45.1448 38.7555 46.8772 38.7555 49.5836C38.7555 53.445 38.7188 56.5504 38.7188 57.5242C38.7188 58.2829 39.2595 59.1833 40.7032 58.8945C52.1089 55.0699 60.375 44.2418 60.375 31.5C60.375 15.5479 47.4548 2.625 31.5 2.625Z" fill="#D8CFB7"/>
</svg>
