<svg width="59" height="59" viewBox="0 0 59 59" fill="none" xmlns="http://www.w3.org/2000/svg">
<path d="M29.5002 7.33067C36.7203 7.33067 37.5758 7.35771 40.4275 7.488C42.1418 7.50871 43.8398 7.82386 45.4474 8.41971C46.6221 8.85324 47.6848 9.54459 48.5572 10.4429C49.4555 11.3153 50.1468 12.3779 50.5804 13.5527C51.1762 15.1603 51.4914 16.8583 51.5121 18.5726C51.6424 21.4243 51.6694 22.2798 51.6694 29.4999C51.6694 36.72 51.6424 37.5755 51.5121 40.4272C51.4914 42.1415 51.1762 43.8395 50.5804 45.4471C50.1305 46.6136 49.4413 47.673 48.5573 48.557C47.6732 49.4411 46.6138 50.1302 45.4474 50.5801C43.8398 51.176 42.1418 51.4911 40.4275 51.5118C37.5758 51.6421 36.7203 51.6692 29.5002 51.6692C22.28 51.6692 21.4245 51.6421 18.5729 51.5118C16.8577 51.4914 15.1588 51.1763 13.5505 50.5801C12.3766 50.1463 11.3148 49.4549 10.4432 48.5569C9.54483 47.6845 8.85348 46.6219 8.41995 45.4471C7.82411 43.8395 7.50895 42.1415 7.48825 40.4272C7.35795 37.5755 7.33091 36.72 7.33091 29.4999C7.33091 22.2798 7.35795 21.4243 7.48825 18.5726C7.50895 16.8583 7.82411 15.1603 8.41995 13.5527C8.85348 12.3779 9.54483 11.3153 10.4432 10.4429C11.3155 9.54459 12.3782 8.85324 13.553 8.41971C15.1605 7.82386 16.8585 7.50871 18.5729 7.488C21.4245 7.35771 22.28 7.33067 29.5002 7.33067ZM29.5002 2.45825C22.1571 2.45825 21.2352 2.49021 18.3516 2.6205C16.1084 2.66525 13.8891 3.09001 11.7879 3.87671C9.98263 4.55639 8.34748 5.62187 6.99658 6.99879C5.62085 8.34923 4.55623 9.98349 3.87695 11.7876C3.09109 13.889 2.66717 16.1083 2.6232 18.3514C2.488 21.235 2.4585 22.1569 2.4585 29.4999C2.4585 36.843 2.49045 37.7648 2.62075 40.6485C2.6655 42.8916 3.09025 45.111 3.87695 47.2122C4.55663 49.0174 5.62212 50.6526 6.99904 52.0035C8.34947 53.3792 9.98374 54.4439 11.7879 55.1231C13.8892 55.909 16.1086 56.3329 18.3516 56.3769C21.2352 56.5121 22.1571 56.5416 29.5002 56.5416C36.8432 56.5416 37.7651 56.5096 40.6487 56.3793C42.8919 56.3346 45.1113 55.9098 47.2125 55.1231C49.0094 54.4284 50.6414 53.3657 52.0037 52.0034C53.366 50.6411 54.4286 49.0092 55.1234 47.2122C55.9092 45.1109 56.3332 42.8915 56.3771 40.6485C56.5123 37.7648 56.5418 36.843 56.5418 29.4999C56.5418 22.1569 56.5099 21.235 56.3796 18.3514C56.3348 16.1082 55.9101 13.8888 55.1234 11.7876C54.4437 9.98239 53.3782 8.34724 52.0013 6.99634C50.6508 5.6206 49.0166 4.55598 47.2125 3.87671C45.1111 3.09085 42.8918 2.66692 40.6487 2.62296C37.7651 2.48775 36.8432 2.45825 29.5002 2.45825ZM29.5002 15.6128C26.7535 15.6128 24.0686 16.4273 21.7849 17.9532C19.5012 19.4791 17.7212 21.648 16.6701 24.1855C15.619 26.7231 15.344 29.5153 15.8799 32.2092C16.4157 34.903 17.7383 37.3774 19.6805 39.3196C21.6226 41.2617 24.0971 42.5844 26.7909 43.1202C29.4848 43.656 32.277 43.381 34.8145 42.3299C37.3521 41.2789 39.5209 39.4989 41.0469 37.2152C42.5728 34.9315 43.3873 32.2465 43.3873 29.4999C43.3873 25.8168 41.9242 22.2846 39.3198 19.6802C36.7155 17.0759 33.1833 15.6128 29.5002 15.6128ZM29.5002 38.5146C27.7172 38.5146 25.9743 37.9859 24.4919 36.9954C23.0094 36.0048 21.854 34.5969 21.1717 32.9497C20.4894 31.3025 20.3108 29.4899 20.6587 27.7412C21.0065 25.9926 21.8651 24.3863 23.1258 23.1256C24.3865 21.8648 25.9928 21.0063 27.7415 20.6584C29.4902 20.3106 31.3027 20.4891 32.9499 21.1714C34.5972 21.8537 36.0051 23.0092 36.9956 24.4916C37.9862 25.9741 38.5149 27.717 38.5149 29.4999C38.5149 31.8908 37.5651 34.1837 35.8745 35.8743C34.1839 37.5649 31.891 38.5146 29.5002 38.5146ZM43.9355 11.8196C43.2937 11.8196 42.6663 12.0099 42.1327 12.3665C41.599 12.723 41.1831 13.2298 40.9375 13.8228C40.6919 14.4157 40.6276 15.0682 40.7528 15.6977C40.8781 16.3271 41.1871 16.9053 41.6409 17.3591C42.0948 17.813 42.673 18.122 43.3024 18.2472C43.9319 18.3724 44.5844 18.3082 45.1773 18.0626C45.7702 17.817 46.277 17.401 46.6336 16.8674C46.9902 16.3338 47.1805 15.7064 47.1805 15.0646C47.1805 14.204 46.8386 13.3786 46.2301 12.77C45.6215 12.1615 44.7961 11.8196 43.9355 11.8196Z" fill="#D8CFB7"/>
</svg>
