<svg width="94" height="126" viewBox="0 0 94 126" fill="none" xmlns="http://www.w3.org/2000/svg">
<path d="M7 62.3198C7 51.0174 10.9729 41.4419 18.9186 33.593C26.8643 25.7442 36.5581 21.8198 48 21.8198C59.4419 21.8198 69.1357 25.7442 77.0814 33.593C85.0271 41.4419 89 51.0174 89 62.3198C89 73.6221 85.0271 83.1977 77.0814 91.0465C69.1357 98.8953 59.4419 102.82 48 102.82C36.5581 102.82 26.8643 98.8953 18.9186 91.0465C10.9729 83.1977 7 73.6221 7 62.3198Z" fill="#F9F6EA"/>
<path d="M17.5009 29.8107C16.8629 30.046 16.1981 30.0353 15.5066 29.7787C14.8408 29.5339 14.1888 29.1242 13.5506 28.5496C12.9192 27.9937 12.3304 27.3795 11.784 26.707C11.2306 26.0157 10.7543 25.36 10.3551 24.7399C9.95587 24.1197 12.7899 33.7674 12.6022 33.4316C12.4174 33.3931 12.2703 33.3408 12.1606 33.2747C12.1037 34.6812 11.9929 28.5139 12.0496 29.708C12.1062 30.9022 12.2418 31.7901 12.4563 32.3718C12.5671 32.6721 12.3914 32.9398 12.5593 33.0484C12.6107 33.0721 12.6502 33.1215 12.6779 33.1966C12.7263 33.3279 12.6335 33.3941 12.3994 33.3952C12.2216 33.3755 9.70896 38.0817 9.41365 38.148C9.1371 38.2074 8.89117 38.2341 8.67584 38.2282C8.25011 38.1721 7.88015 37.9781 7.56595 37.6463C7.24483 37.2958 6.98394 36.8484 6.78326 36.3042C6.50647 35.5536 6.31359 34.6548 6.20462 33.6079C6.09566 32.5609 5.6138 24.0795 5.6105 22.9723C5.61905 21.8393 5.66119 20.7686 5.73695 19.7601C5.8127 18.7516 5.88997 17.8918 5.96878 17.1806C6.05942 16.4437 6.12644 15.9607 6.16983 15.7315C6.32569 15.0559 6.61543 14.5121 7.03904 14.1C7.45573 13.6693 7.95493 13.3466 8.53664 13.1321C9.79388 12.6685 10.3702 12.5839 10.2656 12.8782C9.83928 14.2079 9.53256 15.7172 9.3454 17.4063C9.15132 19.0766 9.06291 20.6866 9.08017 22.2363C9.23428 22.3074 9.46145 22.2876 9.76169 22.1769C10.1933 22.0177 10.5853 21.6067 10.9377 20.9438C11.3089 20.274 11.5941 19.4867 11.7933 18.5819C12.0044 17.6514 12.1079 16.718 12.1036 15.7816C12.1182 14.8383 11.994 14.0101 11.731 13.2971C11.4681 12.584 11.0565 12.075 10.4964 11.7699C9.92932 11.4461 9.17667 11.4572 8.23843 11.8032C7.6192 12.0316 6.9442 12.3977 6.21343 12.9017C5.50142 13.3987 4.83686 13.9955 4.21974 14.6921C3.60262 15.3886 3.13023 16.1597 2.80256 17.0053C2.46796 17.8321 2.37538 18.7082 2.52481 19.6337C2.44283 19.6426 2.23788 19.6649 1.90997 19.7005C1.57513 19.7174 1.23238 19.684 0.881711 19.6001C0.542887 19.4906 0.314656 19.2763 0.19702 18.9573C-0.155888 18.0003 -0.0346915 17.0283 0.560611 16.0414C1.15591 15.0545 2.11965 14.1129 3.45183 13.2166C4.77709 12.3016 6.35919 11.505 8.19814 10.8269C10.0934 10.128 11.6263 9.97835 12.7969 10.378C13.9605 10.7589 14.7465 11.503 15.1548 12.6101C15.4869 13.5108 15.5608 14.5494 15.3765 15.7258C15.2109 16.8953 14.8137 18.0437 14.1848 19.1709C13.5747 20.2911 12.7631 21.2406 11.7499 22.0192C11.9851 22.2523 12.3531 22.5855 12.854 23.019C13.3737 23.4455 13.9517 23.9145 14.5879 24.426C15.236 24.9117 15.8831 25.3659 16.5292 25.7884C17.1684 26.1922 17.7508 26.4997 18.2763 26.7109C18.7949 26.9034 19.1811 26.9102 19.4349 26.7313C19.5218 26.678 19.5564 26.7718 19.5387 27.0128C19.5398 27.2469 19.4668 27.5403 19.3197 27.8929C19.1983 28.2575 18.9915 28.6215 18.6992 28.9851C18.407 29.3486 18.0075 29.6238 17.5009 29.8107Z" fill="#C92460"/>
<path d="M23.2033 25.1498C22.0023 25.5927 20.9914 25.7417 20.1706 25.5967C19.3498 25.4518 18.7317 24.8164 18.3165 23.6905C18.0259 22.9024 17.8434 22.0317 17.769 21.0786C17.7065 20.0998 17.7576 19.111 17.9222 18.1124C18.0869 17.1137 18.3637 16.159 18.7525 15.2482C19.1414 14.3374 19.6479 13.5431 20.2719 12.8654C20.8891 12.1688 21.6292 11.6614 22.4924 11.3431C23.0553 11.1355 23.6074 10.9852 24.1487 10.8922C24.6899 10.7992 25.1823 10.8627 25.6259 11.0829C26.0625 11.2842 26.4089 11.7321 26.6649 12.4264C26.9348 13.1582 27.0872 14.1785 27.1221 15.4872C27.1571 16.7959 27.041 18.1284 26.7737 19.4846C26.7915 19.6486 26.8281 19.8056 26.8835 19.9557C26.9596 20.1622 27.0732 20.3547 27.2244 20.5335C27.3944 20.7053 27.5919 20.7497 27.8171 20.6666C28.1173 20.5559 28.3508 20.2353 28.5176 19.7049C28.6824 19.1112 28.8219 18.4202 28.9363 17.632C29.0506 16.8437 29.1255 16.2086 29.1609 15.7266C29.1569 15.6002 29.2206 15.5127 29.3519 15.4643C29.4833 15.4159 29.6166 15.4306 29.752 15.5086C29.9061 15.5797 29.9639 15.7076 29.9254 15.8923C29.8791 16.2291 29.8274 16.6958 29.7703 17.2924C29.7063 17.8703 29.6082 18.4714 29.476 19.0956C29.3438 19.7199 29.1455 20.2514 28.8809 20.69C28.6825 21.019 28.4237 21.2423 28.1047 21.3599C27.7294 21.4983 27.4168 21.5177 27.1669 21.418C26.9101 21.2995 26.6631 21.0922 26.4259 20.7959C26.123 21.8243 25.7025 22.7361 25.1644 23.5314C24.6264 24.3266 23.9726 24.8661 23.2033 25.1498ZM22.3467 24.4745C22.5531 24.3984 22.7343 24.0225 22.8901 23.3468C23.046 22.6712 23.1746 21.835 23.2761 20.8384C23.3706 19.823 23.4523 18.8016 23.5211 17.7744C23.5408 17.5966 23.5624 17.2795 23.586 16.8232C23.6026 16.3481 23.6148 15.832 23.6226 15.2749C23.6234 14.699 23.603 14.1523 23.5613 13.6348C23.5197 13.1172 23.447 12.7177 23.3432 12.4362C23.2255 12.1172 23.0729 11.9923 22.8852 12.0615C22.7164 12.1238 22.5628 12.3723 22.4247 12.8069C22.2796 13.2228 22.1445 13.7523 22.0192 14.3953C21.894 15.0384 21.7919 15.7155 21.7131 16.4267C21.6343 17.1379 21.5792 17.7977 21.5478 18.4061C21.5164 19.0146 21.4998 19.6922 21.498 20.4389C21.4963 21.1856 21.5217 21.8904 21.5742 22.5531C21.6386 23.1902 21.7366 23.687 21.868 24.0435C21.9995 24.4 22.1591 24.5437 22.3467 24.4745Z" fill="#C92460"/>
<path d="M33.8506 21.2235C33.0813 21.5072 32.4299 21.6195 31.8965 21.5604C31.3819 21.4944 30.9418 21.2836 30.5762 20.9282C30.2294 20.5658 29.9487 20.0937 29.7342 19.512C29.3675 18.5175 29.1775 17.3086 29.1642 15.8852C29.1697 14.455 29.271 13.0534 29.4681 11.6804C29.546 11.1401 29.6431 10.5074 29.7594 9.78238C29.8876 9.03166 30.0568 8.27649 30.2669 7.51687C30.4959 6.75032 30.7747 6.06129 31.1034 5.44979C31.444 4.8126 31.8597 4.35022 32.3505 4.06264C32.6487 3.88871 32.948 3.74639 33.2482 3.63567C33.7361 3.45575 34.1193 3.36773 34.3978 3.3716C34.8917 3.38133 35.1698 3.47063 35.2321 3.63951C35.2736 3.7521 35.2005 3.843 35.0129 3.91219C34.9378 3.93987 34.8519 4.02484 34.7552 4.16711C34.6515 4.2906 34.5641 4.42941 34.493 4.58351C33.9719 5.71363 33.515 7.27834 33.1225 9.27762C32.8 10.8887 32.6019 12.4326 32.5283 13.9093C32.4477 15.3672 32.5218 16.8107 32.7504 18.2399C32.8186 18.5984 32.8943 18.8903 32.9773 19.1154C33.1226 19.5095 33.2921 19.7668 33.4857 19.8872C33.6794 20.0077 33.87 20.0333 34.0577 19.9641C34.4329 19.8257 34.785 19.4507 35.1137 18.8392C35.4612 18.2208 35.6916 17.6029 35.805 16.9855C35.9984 16.2961 36.138 15.6051 36.2237 14.9127C36.3213 14.1946 36.3971 13.591 36.4513 13.1021C36.4779 12.9431 36.5569 12.8393 36.6883 12.7909C36.8009 12.7494 36.9248 12.7676 37.0602 12.8456C37.1955 12.9236 37.2533 13.0515 37.2336 13.2293C37.1598 13.896 37.0489 14.6936 36.901 15.6221C36.7719 16.5437 36.5647 17.3982 36.2795 18.1855C36.018 18.9214 35.6809 19.568 35.2682 20.1252C34.8673 20.6567 34.3948 21.0228 33.8506 21.2235Z" fill="#C92460"/>
<path d="M42.0897 18.441C40.7199 18.9461 39.6112 19.0033 38.7636 18.6124C37.9348 18.2146 37.3335 17.509 36.9599 16.4957C36.6761 15.7264 36.5243 14.8231 36.5042 13.786C36.4713 12.9455 36.5195 12.0644 36.6486 11.1428C36.7708 10.2025 36.9829 9.30358 37.2849 8.44614C37.5799 7.56993 37.9832 6.8137 38.4946 6.17745C38.9992 5.52243 39.6173 5.05999 40.3492 4.79012C41.2874 4.44413 42.1027 4.31399 42.7952 4.39972C43.4994 4.45975 43.9727 4.81816 44.2149 5.47493C44.3948 5.96281 44.4226 6.64532 44.2984 7.52246C44.1467 8.72952 43.6853 9.84826 42.9142 10.8787C42.1431 11.9091 41.1462 12.7031 39.9235 13.2605C39.9258 14.1337 39.9887 14.8246 40.1123 15.3332C40.1282 15.434 40.1534 15.5312 40.188 15.6251C40.2157 15.7001 40.2468 15.7846 40.2814 15.8784C40.5098 16.4976 40.8166 16.8961 41.2018 17.0738C41.5802 17.2327 41.9758 17.236 42.3886 17.0838C43.158 16.8001 43.7608 16.3539 44.1972 15.7453C44.6336 15.1368 44.9569 14.4527 45.167 13.693C45.396 12.9265 45.5592 12.1842 45.6568 11.4661C45.7199 11.0591 45.7652 10.6907 45.7928 10.3607C45.8134 10.0121 45.837 9.75822 45.8636 9.59919C45.9021 9.41447 45.9776 9.30135 46.0902 9.25983C46.2028 9.21831 46.3302 9.24593 46.4725 9.34269C46.6078 9.42068 46.6657 9.54857 46.646 9.72637C46.5819 10.3042 46.4829 11.0761 46.3489 12.0422C46.2148 13.0082 45.9899 13.9012 45.6741 14.7211C45.3365 15.6556 44.8864 16.4291 44.3235 17.0417C43.7726 17.6286 43.028 18.095 42.0897 18.441ZM39.9885 12.3093C40.7152 11.6789 41.2454 10.8333 41.5789 9.77235C41.9312 8.7045 42.0366 7.6318 41.895 6.55423C41.8792 6.45348 41.8574 6.36558 41.8297 6.29052C41.8208 6.20854 41.8025 6.13003 41.7748 6.05497C41.6364 5.67967 41.4547 5.53354 41.2295 5.61658C41.0418 5.68578 40.8932 5.88979 40.7837 6.22861C40.6149 6.69586 40.4759 7.30138 40.3665 8.04517C40.2501 8.7702 40.1679 9.47201 40.1197 10.1506C40.0715 10.8292 40.0371 11.3428 40.0164 11.6915L39.9885 12.3093Z" fill="#C92460"/>
<path d="M49.8992 17.632C48.7546 18.0541 47.7286 16.7559 46.7289 16.3572C45.7292 15.9584 45.7662 13.8451 45.3233 12.6442C45.1711 12.2314 45.0589 11.7825 44.9866 11.2975C44.9144 10.8126 44.9226 10.3725 45.0114 9.97741C45.1002 9.58229 45.3134 9.32246 45.6512 9.1979C45.8576 9.12178 46.032 9.1321 46.1742 9.22886C46.2402 8.71423 46.325 8.19268 46.4286 7.66422C46.5321 7.13575 46.6322 6.5979 46.7289 6.05067C46.8492 5.45207 46.9991 4.78926 47.1787 4.06223C47.3701 3.30952 47.6454 2.61112 48.0048 1.96701C48.3572 1.30413 48.8326 0.830374 49.4311 0.545727C49.4992 0.499283 49.5708 0.462221 49.6459 0.434542C49.7397 0.399944 49.8242 0.368804 49.8992 0.341125C50.1056 0.265008 50.3249 0.194813 50.557 0.130541C50.7891 0.0662677 50.9649 0.0227542 51.0844 0C51.1288 0.0049255 51.1778 0.0508403 51.2311 0.137744C51.2845 0.224648 51.2549 0.28886 51.1423 0.330378C51.0672 0.358057 50.9379 0.46971 50.7542 0.665336C50.5636 0.842197 50.5188 1.1252 50.6196 1.51433C51.0665 2.8417 51.4664 4.18638 51.8195 5.54835C52.1913 6.9034 52.4178 8.06688 52.4991 9.03878C52.5526 9.53065 52.5542 10.0843 52.504 10.6996C52.4538 11.315 52.336 11.8914 52.1505 12.4288C51.9649 12.9662 51.7122 13.3791 51.3923 13.6676C51.7676 13.5292 52.1201 13.2713 52.4499 12.8939C52.7915 12.4908 53.0783 12.0546 53.3103 11.5854C53.561 11.1092 53.7318 10.7052 53.8226 10.3733C54.0209 9.63935 54.1713 8.8911 54.2738 8.12855C54.3881 7.3403 54.464 6.73678 54.5014 6.31797C54.5231 6.20339 54.5715 6.13225 54.6465 6.10457C54.7403 6.06998 54.8455 6.09513 54.9621 6.18004C55.0787 6.26495 55.1612 6.37308 55.2096 6.50444C55.2235 6.54196 55.2279 6.58295 55.223 6.6274C55.2369 6.66493 55.2413 6.70592 55.2364 6.75037C55.1477 7.55046 55.755 8.19225 55.5982 9.03878C56.23 10.8185 55.5205 12.5958 55.2096 13.3713C54.8918 14.1279 53.9237 14.8774 53.3727 15.4643C53.3727 16.8232 50.708 17.9363 49.8992 17.632ZM48.2202 13.9101C48.4266 13.834 48.6088 13.6922 48.7668 13.4847C48.9248 13.2772 49.0176 13.0085 49.0451 12.6786C49.0982 11.9556 49.0886 11.1491 49.0162 10.2592C48.9439 9.36926 48.8468 8.4991 48.725 7.64871C48.5964 6.77954 48.4742 6.01458 48.3584 5.35383C48.2545 4.66739 48.1788 4.17305 48.1313 3.87082C47.9744 4.31238 47.8037 4.9189 47.6192 5.69037C47.4535 6.45492 47.2972 7.21602 47.1502 7.97365C47.022 8.72436 46.9333 9.32197 46.8841 9.76646C47.062 10.1911 47.035 10.6381 46.803 11.1073C46.571 11.5766 46.3894 12.0379 46.2582 12.4913L46.3724 12.8009C46.4 12.876 46.4346 12.9698 46.4762 13.0824C46.5364 13.1881 46.5933 13.2843 46.6466 13.3713C46.8512 13.6369 47.1006 13.822 47.395 13.9266C47.7012 14.0055 47.9763 14 48.2202 13.9101Z" fill="#C92460"/>
<path d="M76.351 95.4183C76.989 95.1831 77.6538 95.1937 78.3453 95.4503C79.0111 95.6951 79.6631 96.1048 80.3014 96.6795C80.9327 97.2354 81.5216 97.8495 82.068 98.522C82.6213 99.2133 83.0976 99.869 83.4968 100.489C83.8961 101.109 81.062 91.4616 81.2498 91.7974C81.4345 91.8359 81.5817 91.8882 81.6913 91.9543C81.7482 90.5478 81.859 96.7151 81.8023 95.521C81.7457 94.3268 81.6101 93.4389 81.3956 92.8572C81.2849 92.5569 81.4605 92.2892 81.2926 92.1806C81.2412 92.1569 81.2017 92.1075 81.174 92.0324C81.1256 91.9011 81.2184 91.8349 81.4525 91.8338C81.6303 91.8535 84.143 87.1473 84.4383 87.081C84.7148 87.0217 84.9608 86.9949 85.1761 87.0008C85.6018 87.0569 85.9718 87.2509 86.286 87.5827C86.6071 87.9333 86.868 88.3806 87.0687 88.9248C87.3455 89.6754 87.5383 90.5742 87.6473 91.6211C87.7563 92.6681 88.2381 101.149 88.2414 102.257C88.2329 103.39 88.1907 104.46 88.115 105.469C88.0392 106.477 87.962 107.337 87.8832 108.048C87.7925 108.785 87.7255 109.268 87.6821 109.497C87.5262 110.173 87.2365 110.717 86.8129 111.129C86.3962 111.56 85.897 111.882 85.3153 112.097C84.0581 112.561 83.4817 112.645 83.5863 112.351C84.0126 111.021 84.3194 109.512 84.5065 107.823C84.7006 106.152 84.789 104.542 84.7718 102.993C84.6177 102.922 84.3905 102.941 84.0902 103.052C83.6587 103.211 83.2666 103.622 82.9142 104.285C82.543 104.955 82.2578 105.742 82.0586 106.647C81.8475 107.578 81.7441 108.511 81.7483 109.447C81.7338 110.391 81.858 111.219 82.1209 111.932C82.3839 112.645 82.7954 113.154 83.3556 113.459C83.9226 113.783 84.6753 113.772 85.6135 113.426C86.2327 113.197 86.9077 112.831 87.6385 112.327C88.3505 111.83 89.0151 111.233 89.6322 110.537C90.2493 109.84 90.7217 109.069 91.0494 108.224C91.384 107.397 91.4765 106.521 91.3271 105.595C91.4091 105.586 91.614 105.564 91.942 105.528C92.2768 105.512 92.6195 105.545 92.9702 105.629C93.309 105.738 93.5373 105.953 93.6549 106.272C94.0078 107.229 93.8866 108.201 93.2913 109.188C92.696 110.175 91.7323 111.116 90.4001 112.012C89.0748 112.927 87.4927 113.724 85.6538 114.402C83.7585 115.101 82.2256 115.251 81.0551 114.851C79.8914 114.47 79.1054 113.726 78.6972 112.619C78.365 111.718 78.2911 110.68 78.4755 109.503C78.6411 108.334 79.0383 107.185 79.6671 106.058C80.2772 104.938 81.0888 103.988 82.102 103.21C81.8668 102.977 81.4988 102.643 80.9979 102.21C80.4782 101.783 79.9003 101.314 79.264 100.803C78.6159 100.317 77.9688 99.8631 77.3227 99.4406C76.6835 99.0368 76.1012 98.7293 75.5756 98.5181C75.057 98.3256 74.6708 98.3188 74.417 98.4977C74.3301 98.551 74.2955 98.4572 74.3132 98.2162C74.3122 97.9821 74.3852 97.6887 74.5322 97.3361C74.6536 96.9715 74.8604 96.6075 75.1527 96.2439C75.4449 95.8804 75.8444 95.6052 76.351 95.4183Z" fill="#60C3F4"/>
<path d="M70.6486 100.079C71.8496 99.6363 72.8605 99.4873 73.6813 99.6323C74.5022 99.7772 75.1202 100.413 75.5354 101.539C75.826 102.327 76.0085 103.197 76.0829 104.15C76.1454 105.129 76.0943 106.118 75.9297 107.117C75.765 108.115 75.4883 109.07 75.0994 109.981C74.7105 110.892 74.204 111.686 73.58 112.364C72.9629 113.06 72.2227 113.568 71.3595 113.886C70.7966 114.094 70.2445 114.244 69.7033 114.337C69.162 114.43 68.6696 114.366 68.226 114.146C67.7894 113.945 67.4431 113.497 67.187 112.803C66.9172 112.071 66.7647 111.051 66.7298 109.742C66.6948 108.433 66.811 107.101 67.0782 105.744C67.0604 105.58 67.0238 105.423 66.9685 105.273C66.8923 105.067 66.7787 104.874 66.6275 104.696C66.4576 104.524 66.26 104.479 66.0348 104.562C65.7346 104.673 65.5011 104.994 65.3343 105.524C65.1696 106.118 65.03 106.809 64.9157 107.597C64.8013 108.385 64.7264 109.02 64.691 109.502C64.695 109.629 64.6313 109.716 64.5 109.765C64.3686 109.813 64.2353 109.798 64.0999 109.72C63.9458 109.649 63.888 109.521 63.9265 109.337C63.9728 109 64.0245 108.533 64.0816 107.937C64.1457 107.359 64.2438 106.758 64.3759 106.133C64.5081 105.509 64.7065 104.978 64.971 104.539C65.1695 104.21 65.4282 103.987 65.7472 103.869C66.1225 103.731 66.4351 103.711 66.685 103.811C66.9419 103.929 67.1889 104.137 67.426 104.433C67.7289 103.405 68.1494 102.493 68.6875 101.698C69.2256 100.902 69.8793 100.363 70.6486 100.079ZM71.5052 100.755C71.2988 100.831 71.1177 101.207 70.9618 101.882C70.8059 102.558 70.6773 103.394 70.5759 104.391C70.4813 105.406 70.3997 106.427 70.3308 107.455C70.3111 107.632 70.2895 107.949 70.2659 108.406C70.2493 108.881 70.2371 109.397 70.2294 109.954C70.2286 110.53 70.249 111.077 70.2906 111.594C70.3323 112.112 70.405 112.511 70.5088 112.793C70.6264 113.112 70.779 113.237 70.9667 113.167C71.1356 113.105 71.2891 112.857 71.4272 112.422C71.5723 112.006 71.7075 111.477 71.8327 110.834C71.958 110.191 72.06 109.514 72.1388 108.802C72.2176 108.091 72.2727 107.431 72.3041 106.823C72.3356 106.214 72.3522 105.537 72.3539 104.79C72.3556 104.043 72.3302 103.339 72.2777 102.676C72.2133 102.039 72.1154 101.542 71.9839 101.186C71.8524 100.829 71.6929 100.685 71.5052 100.755Z" fill="#60C3F4"/>
<path d="M60.0013 104.006C60.7707 103.722 61.4221 103.609 61.9554 103.669C62.4701 103.735 62.9102 103.945 63.2757 104.301C63.6225 104.663 63.9032 105.135 64.1177 105.717C64.4845 106.712 64.6745 107.92 64.6877 109.344C64.6822 110.774 64.5809 112.176 64.3838 113.549C64.3059 114.089 64.2088 114.722 64.0925 115.447C63.9643 116.197 63.7952 116.953 63.585 117.712C63.3561 118.479 63.0772 119.168 62.7485 119.779C62.4079 120.416 61.9922 120.879 61.5014 121.166C61.2032 121.34 60.904 121.483 60.6037 121.593C60.1158 121.773 59.7326 121.861 59.4541 121.857C58.9602 121.848 58.6821 121.758 58.6199 121.589C58.5783 121.477 58.6514 121.386 58.8391 121.317C58.9141 121.289 59 121.204 59.0968 121.062C59.2005 120.938 59.2878 120.8 59.3589 120.645C59.8801 119.515 60.3369 117.951 60.7294 115.951C61.0519 114.34 61.25 112.796 61.3236 111.32C61.4042 109.862 61.3302 108.418 61.1016 106.989C61.0333 106.631 60.9577 106.339 60.8746 106.114C60.7293 105.719 60.5598 105.462 60.3662 105.342C60.1726 105.221 59.9819 105.196 59.7943 105.265C59.419 105.403 59.067 105.778 58.7382 106.39C58.3907 107.008 58.1603 107.626 58.0469 108.243C57.8535 108.933 57.714 109.624 57.6282 110.316C57.5307 111.034 57.4548 111.638 57.4006 112.127C57.374 112.286 57.295 112.39 57.1637 112.438C57.0511 112.48 56.9271 112.461 56.7918 112.383C56.6564 112.305 56.5986 112.178 56.6183 112C56.6922 111.333 56.803 110.535 56.9509 109.607C57.08 108.685 57.2872 107.831 57.5724 107.044C57.8339 106.308 58.1711 105.661 58.5838 105.104C58.9846 104.572 59.4571 104.206 60.0013 104.006Z" fill="#60C3F4"/>
<path d="M51.7622 106.788C53.132 106.283 54.2407 106.226 55.0883 106.617C55.9172 107.014 56.5184 107.72 56.8921 108.733C57.1758 109.503 57.3277 110.406 57.3477 111.443C57.3806 112.284 57.3325 113.165 57.2033 114.086C57.0812 115.027 56.8691 115.925 56.5671 116.783C56.272 117.659 55.8687 118.415 55.3573 119.052C54.8528 119.707 54.2346 120.169 53.5028 120.439C52.5645 120.785 51.7492 120.915 51.0568 120.829C50.3525 120.769 49.8793 120.411 49.6371 119.754C49.4572 119.266 49.4293 118.584 49.5535 117.707C49.7052 116.499 50.1667 115.381 50.9378 114.35C51.7089 113.32 52.7057 112.526 53.9284 111.968C53.9261 111.095 53.8632 110.404 53.7396 109.896C53.7238 109.795 53.6985 109.698 53.6639 109.604C53.6363 109.529 53.6051 109.444 53.5705 109.351C53.3422 108.731 53.0354 108.333 52.6501 108.155C52.2717 107.996 51.8762 107.993 51.4633 108.145C50.694 108.429 50.0911 108.875 49.6547 109.484C49.2183 110.092 48.895 110.776 48.6849 111.536C48.456 112.303 48.2927 113.045 48.1951 113.763C48.1321 114.17 48.0867 114.538 48.0592 114.868C48.0385 115.217 48.0149 115.471 47.9883 115.63C47.9498 115.815 47.8743 115.928 47.7617 115.969C47.6491 116.011 47.5217 115.983 47.3794 115.886C47.2441 115.808 47.1863 115.68 47.206 115.503C47.27 114.925 47.369 114.153 47.5031 113.187C47.6371 112.221 47.862 111.328 48.1779 110.508C48.5154 109.573 48.9656 108.8 49.5284 108.187C50.0794 107.6 50.824 107.134 51.7622 106.788ZM53.8635 112.92C53.1367 113.55 52.6065 114.396 52.273 115.457C51.9207 116.525 51.8153 117.597 51.9569 118.675C51.9728 118.776 51.9945 118.863 52.0222 118.938C52.0311 119.02 52.0494 119.099 52.0771 119.174C52.2155 119.549 52.3973 119.695 52.6224 119.612C52.8101 119.543 52.9587 119.339 53.0682 119C53.237 118.533 53.3761 117.928 53.4855 117.184C53.6018 116.459 53.6841 115.757 53.7323 115.078C53.7805 114.4 53.8149 113.886 53.8355 113.538L53.8635 112.92Z" fill="#60C3F4"/>
<path d="M43.9527 107.597C45.0974 107.175 46.1234 108.473 47.1231 108.872C48.1228 109.271 48.0857 111.384 48.5286 112.585C48.6808 112.998 48.7931 113.447 48.8653 113.931C48.9376 114.416 48.9293 114.856 48.8405 115.252C48.7518 115.647 48.5385 115.907 48.2007 116.031C47.9943 116.107 47.82 116.097 47.6777 116C47.6117 116.515 47.5269 117.036 47.4233 117.565C47.3198 118.093 47.2197 118.631 47.1231 119.178C47.0027 119.777 46.8528 120.44 46.6733 121.167C46.4819 121.919 46.2065 122.618 45.8472 123.262C45.4948 123.925 45.0193 124.399 44.4208 124.683C44.3527 124.73 44.2811 124.767 44.206 124.794C44.1122 124.829 44.0278 124.86 43.9527 124.888C43.7463 124.964 43.527 125.034 43.2949 125.098C43.0628 125.163 42.887 125.206 42.7675 125.229C42.7231 125.224 42.6742 125.178 42.6208 125.091C42.5674 125.004 42.5971 124.94 42.7096 124.899C42.7847 124.871 42.9141 124.759 43.0977 124.564C43.2883 124.387 43.3332 124.104 43.2323 123.715C42.7854 122.387 42.3855 121.043 42.0325 119.681C41.6607 118.326 41.4341 117.162 41.3528 116.19C41.2994 115.698 41.2977 115.145 41.3479 114.529C41.3981 113.914 41.5159 113.338 41.7015 112.8C41.887 112.263 42.1397 111.85 42.4597 111.561C42.0844 111.7 41.7318 111.958 41.402 112.335C41.0604 112.738 40.7736 113.174 40.5416 113.644C40.2909 114.12 40.1201 114.524 40.0294 114.856C39.8311 115.59 39.6807 116.338 39.5782 117.1C39.4638 117.889 39.388 118.492 39.3505 118.911C39.3288 119.026 39.2805 119.097 39.2054 119.124C39.1116 119.159 39.0064 119.134 38.8898 119.049C38.7732 118.964 38.6907 118.856 38.6423 118.725C38.6284 118.687 38.624 118.646 38.6289 118.602C38.6151 118.564 38.6106 118.523 38.6155 118.479C38.7042 117.679 38.0969 117.037 38.2537 116.19C37.6219 114.411 38.3314 112.633 38.6423 111.858C38.9601 111.101 39.9282 110.352 40.4792 109.765C40.4792 108.406 43.1439 107.293 43.9527 107.597ZM45.6317 111.319C45.4253 111.395 45.2431 111.537 45.0851 111.744C44.9271 111.952 44.8344 112.22 44.8068 112.55C44.7537 113.273 44.7633 114.08 44.8357 114.97C44.9081 115.86 45.0051 116.73 45.1269 117.58C45.2555 118.449 45.3778 119.214 45.4935 119.875C45.5974 120.562 45.6732 121.056 45.7207 121.358C45.8776 120.917 46.0483 120.31 46.2327 119.539C46.3984 118.774 46.5548 118.013 46.7017 117.255C46.8299 116.505 46.9186 115.907 46.9679 115.463C46.7899 115.038 46.817 114.591 47.0489 114.122C47.2809 113.652 47.4625 113.191 47.5938 112.738L47.4796 112.428C47.4519 112.353 47.4173 112.259 47.3758 112.147C47.3155 112.041 47.2587 111.945 47.2053 111.858C47.0008 111.592 46.7513 111.407 46.4569 111.302C46.1507 111.223 45.8756 111.229 45.6317 111.319Z" fill="#60C3F4"/>
</svg>
