<svg width="94" height="126" viewBox="0 0 94 126" fill="none" xmlns="http://www.w3.org/2000/svg">
<path d="M7 62.3198C7 51.0174 10.9729 41.4419 18.9186 33.593C26.8643 25.7442 36.5581 21.8198 48 21.8198C59.4419 21.8198 69.1357 25.7442 77.0814 33.593C85.0271 41.4419 89 51.0174 89 62.3198C89 73.6221 85.0271 83.1977 77.0814 91.0465C69.1357 98.8953 59.4419 102.82 48 102.82C36.5581 102.82 26.8643 98.8953 18.9186 91.0465C10.9729 83.1977 7 73.6221 7 62.3198Z" fill="#D8CFB7"/>
<path d="M17.5009 29.8107C16.8629 30.046 16.1981 30.0353 15.5066 29.7787C14.8408 29.5339 14.1888 29.1242 13.5506 28.5496C12.9192 27.9937 12.3304 27.3795 11.784 26.707C11.2306 26.0157 10.7543 25.36 10.3551 24.7399C9.95587 24.1197 12.7899 33.7674 12.6022 33.4316C12.4174 33.3931 12.2703 33.3408 12.1606 33.2747C12.1037 34.6812 11.9929 28.5139 12.0496 29.708C12.1062 30.9022 12.2418 31.7901 12.4563 32.3718C12.5671 32.6721 12.3914 32.9398 12.5593 33.0484C12.6107 33.0721 12.6502 33.1215 12.6779 33.1966C12.7263 33.3279 12.6335 33.3941 12.3994 33.3952C12.2216 33.3755 9.70896 38.0817 9.41365 38.148C9.1371 38.2073 8.89117 38.2341 8.67584 38.2282C8.25011 38.1721 7.88015 37.9781 7.56595 37.6463C7.24483 37.2958 6.98394 36.8484 6.78326 36.3042C6.50647 35.5536 6.31359 34.6548 6.20462 33.6079C6.09566 32.5609 5.6138 24.0795 5.6105 22.9723C5.61905 21.8393 5.66119 20.7686 5.73695 19.7601C5.8127 18.7516 5.88997 17.8918 5.96878 17.1806C6.05942 16.4437 6.12644 15.9607 6.16983 15.7315C6.32569 15.0559 6.61543 14.5121 7.03904 14.1C7.45573 13.6693 7.95493 13.3466 8.53664 13.1321C9.79388 12.6685 10.3702 12.5839 10.2656 12.8782C9.83928 14.2079 9.53256 15.7172 9.3454 17.4063C9.15132 19.0766 9.06291 20.6866 9.08017 22.2363C9.23428 22.3074 9.46145 22.2876 9.76169 22.1769C10.1933 22.0177 10.5853 21.6067 10.9377 20.9438C11.3089 20.274 11.5941 19.4867 11.7933 18.5819C12.0044 17.6514 12.1079 16.718 12.1036 15.7816C12.1182 14.8383 11.994 14.0101 11.731 13.2971C11.4681 12.584 11.0565 12.075 10.4964 11.7699C9.92932 11.4461 9.17667 11.4572 8.23843 11.8032C7.6192 12.0316 6.9442 12.3977 6.21343 12.9017C5.50142 13.3987 4.83686 13.9955 4.21974 14.6921C3.60262 15.3886 3.13023 16.1597 2.80256 17.0053C2.46796 17.8321 2.37538 18.7082 2.52481 19.6337C2.44283 19.6426 2.23788 19.6649 1.90997 19.7005C1.57513 19.7174 1.23238 19.684 0.881711 19.6001C0.542887 19.4906 0.314656 19.2763 0.19702 18.9573C-0.155888 18.0003 -0.0346915 17.0283 0.560611 16.0414C1.15591 15.0545 2.11965 14.1129 3.45183 13.2166C4.77709 12.3016 6.35919 11.505 8.19814 10.8269C10.0934 10.128 11.6263 9.97835 12.7969 10.378C13.9605 10.7589 14.7465 11.503 15.1548 12.6101C15.4869 13.5108 15.5608 14.5494 15.3765 15.7258C15.2109 16.8953 14.8137 18.0437 14.1848 19.1709C13.5747 20.2911 12.7631 21.2406 11.7499 22.0192C11.9851 22.2523 12.3531 22.5855 12.854 23.019C13.3737 23.4455 13.9517 23.9145 14.5879 24.426C15.236 24.9117 15.8831 25.3659 16.5292 25.7884C17.1684 26.1922 17.7508 26.4997 18.2763 26.7109C18.7949 26.9034 19.1811 26.9102 19.4349 26.7313C19.5218 26.678 19.5564 26.7718 19.5387 27.0128C19.5398 27.2469 19.4668 27.5403 19.3197 27.8929C19.1983 28.2575 18.9915 28.6215 18.6992 28.9851C18.407 29.3486 18.0075 29.6238 17.5009 29.8107Z" fill="#C92460"/>
<path d="M23.2033 25.1498C22.0023 25.5927 20.9914 25.7417 20.1706 25.5967C19.3497 25.4518 18.7317 24.8164 18.3165 23.6905C18.0259 22.9024 17.8434 22.0317 17.769 21.0786C17.7065 20.0998 17.7576 19.111 17.9222 18.1124C18.0869 17.1137 18.3637 16.159 18.7525 15.2482C19.1414 14.3374 19.6479 13.5431 20.2719 12.8654C20.8891 12.1688 21.6292 11.6614 22.4924 11.3431C23.0553 11.1355 23.6074 10.9852 24.1487 10.8922C24.6899 10.7992 25.1823 10.8627 25.6259 11.0829C26.0625 11.2842 26.4089 11.7321 26.6649 12.4264C26.9348 13.1582 27.0872 14.1785 27.1221 15.4872C27.1571 16.7959 27.041 18.1284 26.7737 19.4846C26.7915 19.6486 26.8281 19.8056 26.8835 19.9557C26.9596 20.1622 27.0732 20.3547 27.2244 20.5335C27.3944 20.7053 27.5919 20.7497 27.8171 20.6666C28.1173 20.5559 28.3508 20.2353 28.5176 19.7049C28.6824 19.1112 28.8219 18.4202 28.9363 17.632C29.0506 16.8437 29.1255 16.2086 29.1609 15.7266C29.1569 15.6002 29.2206 15.5127 29.3519 15.4643C29.4833 15.4159 29.6166 15.4306 29.752 15.5086C29.9061 15.5797 29.9639 15.7076 29.9254 15.8923C29.8791 16.2291 29.8274 16.6958 29.7703 17.2924C29.7063 17.8703 29.6082 18.4714 29.476 19.0956C29.3438 19.7199 29.1455 20.2514 28.8809 20.69C28.6825 21.019 28.4237 21.2423 28.1047 21.3599C27.7294 21.4983 27.4168 21.5177 27.1669 21.418C26.9101 21.2995 26.6631 21.0922 26.4259 20.7959C26.123 21.8243 25.7025 22.7361 25.1644 23.5314C24.6264 24.3266 23.9726 24.8661 23.2033 25.1498ZM22.3467 24.4745C22.5531 24.3984 22.7343 24.0225 22.8901 23.3468C23.046 22.6712 23.1746 21.835 23.2761 20.8384C23.3706 19.823 23.4523 18.8016 23.5211 17.7744C23.5408 17.5966 23.5624 17.2795 23.586 16.8232C23.6026 16.3481 23.6148 15.832 23.6226 15.2749C23.6234 14.699 23.603 14.1523 23.5613 13.6348C23.5197 13.1172 23.447 12.7177 23.3432 12.4362C23.2255 12.1172 23.0729 11.9923 22.8852 12.0615C22.7164 12.1238 22.5628 12.3723 22.4247 12.8069C22.2796 13.2228 22.1445 13.7523 22.0192 14.3953C21.894 15.0384 21.7919 15.7155 21.7131 16.4267C21.6343 17.1379 21.5792 17.7977 21.5478 18.4061C21.5164 19.0146 21.4998 19.6922 21.498 20.4389C21.4963 21.1856 21.5217 21.8904 21.5742 22.5531C21.6386 23.1902 21.7366 23.687 21.868 24.0435C21.9995 24.4 22.1591 24.5437 22.3467 24.4745Z" fill="#C92460"/>
<path d="M33.8506 21.2235C33.0813 21.5072 32.4299 21.6195 31.8965 21.5604C31.3819 21.4944 30.9418 21.2836 30.5762 20.9282C30.2294 20.5658 29.9487 20.0937 29.7342 19.512C29.3675 18.5175 29.1775 17.3086 29.1642 15.8852C29.1697 14.455 29.271 13.0534 29.4681 11.6804C29.546 11.1401 29.6431 10.5074 29.7594 9.78238C29.8876 9.03166 30.0568 8.27649 30.2669 7.51687C30.4959 6.75032 30.7747 6.06129 31.1034 5.44979C31.444 4.8126 31.8597 4.35022 32.3505 4.06264C32.6487 3.88871 32.948 3.74639 33.2482 3.63567C33.7361 3.45575 34.1193 3.36773 34.3978 3.3716C34.8917 3.38133 35.1698 3.47063 35.2321 3.63951C35.2736 3.7521 35.2005 3.843 35.0129 3.91219C34.9378 3.93987 34.8519 4.02484 34.7552 4.16711C34.6515 4.2906 34.5641 4.42941 34.493 4.58351C33.9719 5.71363 33.515 7.27834 33.1225 9.27762C32.8 10.8887 32.6019 12.4326 32.5283 13.9093C32.4477 15.3672 32.5218 16.8107 32.7504 18.2399C32.8186 18.5984 32.8943 18.8903 32.9773 19.1154C33.1226 19.5095 33.2921 19.7668 33.4857 19.8872C33.6794 20.0077 33.87 20.0333 34.0577 19.9641C34.4329 19.8257 34.785 19.4507 35.1137 18.8392C35.4612 18.2208 35.6916 17.6029 35.805 16.9855C35.9984 16.2961 36.138 15.6051 36.2237 14.9127C36.3213 14.1946 36.3971 13.591 36.4513 13.1021C36.4779 12.9431 36.5569 12.8393 36.6883 12.7909C36.8009 12.7494 36.9248 12.7676 37.0602 12.8456C37.1955 12.9236 37.2533 13.0515 37.2336 13.2293C37.1598 13.896 37.0489 14.6936 36.901 15.6221C36.7719 16.5437 36.5647 17.3982 36.2795 18.1855C36.018 18.9214 35.6809 19.568 35.2682 20.1252C34.8673 20.6567 34.3948 21.0228 33.8506 21.2235Z" fill="#C92460"/>
<path d="M42.0897 18.441C40.7199 18.9461 39.6112 19.0033 38.7636 18.6124C37.9348 18.2146 37.3335 17.509 36.9599 16.4957C36.6761 15.7264 36.5243 14.8231 36.5042 13.786C36.4713 12.9455 36.5195 12.0644 36.6486 11.1428C36.7708 10.2025 36.9829 9.30358 37.2849 8.44614C37.5799 7.56993 37.9832 6.8137 38.4946 6.17745C38.9992 5.52243 39.6173 5.05999 40.3492 4.79012C41.2874 4.44413 42.1027 4.31399 42.7952 4.39972C43.4994 4.45976 43.9727 4.81816 44.2149 5.47493C44.3948 5.96281 44.4226 6.64532 44.2984 7.52246C44.1467 8.72952 43.6853 9.84826 42.9142 10.8787C42.1431 11.9091 41.1462 12.7031 39.9235 13.2605C39.9258 14.1337 39.9887 14.8246 40.1123 15.3332C40.1282 15.434 40.1534 15.5312 40.188 15.6251C40.2157 15.7001 40.2468 15.7846 40.2814 15.8784C40.5098 16.4976 40.8166 16.8961 41.2018 17.0738C41.5802 17.2327 41.9758 17.236 42.3886 17.0838C43.158 16.8001 43.7608 16.3539 44.1972 15.7453C44.6336 15.1368 44.9569 14.4527 45.167 13.693C45.396 12.9265 45.5592 12.1842 45.6568 11.4661C45.7199 11.0591 45.7652 10.6907 45.7928 10.3607C45.8134 10.0121 45.837 9.75822 45.8636 9.59919C45.9021 9.41447 45.9776 9.30135 46.0902 9.25983C46.2028 9.21831 46.3302 9.24593 46.4725 9.34269C46.6078 9.42068 46.6657 9.54857 46.646 9.72637C46.5819 10.3042 46.4829 11.0761 46.3489 12.0422C46.2148 13.0082 45.9899 13.9012 45.6741 14.7211C45.3365 15.6556 44.8864 16.4291 44.3235 17.0417C43.7726 17.6286 43.028 18.095 42.0897 18.441ZM39.9885 12.3093C40.7152 11.6789 41.2454 10.8333 41.5789 9.77235C41.9312 8.7045 42.0366 7.6318 41.895 6.55423C41.8792 6.45348 41.8574 6.36558 41.8297 6.29052C41.8208 6.20854 41.8025 6.13003 41.7748 6.05497C41.6364 5.67967 41.4547 5.53354 41.2295 5.61658C41.0418 5.68578 40.8932 5.88979 40.7837 6.22861C40.615 6.69586 40.4759 7.30138 40.3665 8.04517C40.2501 8.7702 40.1679 9.47201 40.1197 10.1506C40.0715 10.8292 40.0371 11.3428 40.0164 11.6915L39.9885 12.3093Z" fill="#C92460"/>
<path d="M49.8992 17.632C48.7546 18.0541 47.7286 16.7559 46.7289 16.3572C45.7292 15.9584 45.7662 13.8451 45.3233 12.6442C45.1711 12.2314 45.0589 11.7825 44.9866 11.2975C44.9144 10.8126 44.9226 10.3725 45.0114 9.97741C45.1002 9.58229 45.3134 9.32246 45.6512 9.1979C45.8576 9.12178 46.032 9.1321 46.1742 9.22886C46.2402 8.71423 46.325 8.19268 46.4286 7.66422C46.5321 7.13575 46.6322 6.5979 46.7289 6.05067C46.8492 5.45207 46.9991 4.78926 47.1787 4.06223C47.3701 3.30952 47.6454 2.61112 48.0048 1.96701C48.3572 1.30413 48.8326 0.830374 49.4311 0.545727C49.4992 0.499283 49.5708 0.462221 49.6459 0.434542C49.7397 0.399944 49.8242 0.368804 49.8992 0.341125C50.1056 0.265008 50.3249 0.194813 50.557 0.130541C50.7891 0.0662677 50.9649 0.0227542 51.0844 0C51.1288 0.0049255 51.1778 0.0508403 51.2311 0.137744C51.2845 0.224648 51.2549 0.28886 51.1423 0.330378C51.0672 0.358057 50.9379 0.46971 50.7542 0.665336C50.5636 0.842197 50.5188 1.1252 50.6196 1.51433C51.0665 2.8417 51.4664 4.18638 51.8195 5.54835C52.1913 6.9034 52.4178 8.06688 52.4991 9.03878C52.5526 9.53065 52.5542 10.0843 52.504 10.6996C52.4538 11.315 52.336 11.8914 52.1505 12.4288C51.9649 12.9662 51.7122 13.3791 51.3923 13.6676C51.7676 13.5292 52.1201 13.2713 52.4499 12.8939C52.7915 12.4908 53.0783 12.0546 53.3103 11.5854C53.561 11.1092 53.7318 10.7052 53.8226 10.3733C54.0209 9.63935 54.1713 8.8911 54.2738 8.12855C54.3881 7.3403 54.464 6.73678 54.5014 6.31797C54.5231 6.20339 54.5715 6.13225 54.6465 6.10457C54.7403 6.06998 54.8455 6.09513 54.9621 6.18004C55.0787 6.26495 55.1612 6.37308 55.2096 6.50444C55.2235 6.54196 55.2279 6.58295 55.223 6.6274C55.2369 6.66493 55.2413 6.70592 55.2364 6.75037C55.1477 7.55046 55.755 8.19225 55.5982 9.03878C56.23 10.8185 55.5205 12.5958 55.2096 13.3713C54.8918 14.1279 53.9237 14.8774 53.3727 15.4643C53.3727 16.8232 50.708 17.9363 49.8992 17.632ZM48.2202 13.9101C48.4266 13.834 48.6088 13.6922 48.7668 13.4847C48.9248 13.2772 49.0176 13.0085 49.0451 12.6786C49.0982 11.9556 49.0886 11.1491 49.0162 10.2592C48.9439 9.36926 48.8468 8.4991 48.725 7.64871C48.5964 6.77954 48.4742 6.01458 48.3584 5.35383C48.2545 4.66739 48.1788 4.17305 48.1313 3.87082C47.9744 4.31238 47.8037 4.9189 47.6192 5.69037C47.4535 6.45492 47.2972 7.21602 47.1502 7.97365C47.022 8.72436 46.9333 9.32197 46.8841 9.76646C47.062 10.1911 47.035 10.6381 46.803 11.1073C46.571 11.5766 46.3894 12.0379 46.2582 12.4913L46.3724 12.8009C46.4 12.876 46.4346 12.9698 46.4762 13.0824C46.5364 13.1881 46.5933 13.2843 46.6466 13.3713C46.8512 13.6369 47.1006 13.822 47.395 13.9266C47.7012 14.0055 47.9763 14 48.2202 13.9101Z" fill="#C92460"/>
<path d="M76.3512 95.4183C76.9892 95.1831 77.6539 95.1937 78.3454 95.4503C79.0112 95.6951 79.6632 96.1048 80.3015 96.6795C80.9328 97.2354 81.5217 97.8495 82.0681 98.522C82.6214 99.2133 83.0977 99.869 83.497 100.489C83.8962 101.109 81.0621 91.4616 81.2499 91.7974C81.4346 91.8359 81.5818 91.8882 81.6915 91.9543C81.7483 90.5478 81.8591 96.7151 81.8025 95.521C81.7458 94.3268 81.6102 93.4389 81.3957 92.8572C81.285 92.5569 81.4607 92.2892 81.2927 92.1806C81.2414 92.1569 81.2018 92.1075 81.1742 92.0324C81.1257 91.9011 81.2185 91.8349 81.4526 91.8338C81.6304 91.8535 84.1431 87.1473 84.4384 87.081C84.7149 87.0217 84.9609 86.9949 85.1762 87.0008C85.6019 87.0569 85.9719 87.2509 86.2861 87.5827C86.6072 87.9332 86.8681 88.3806 87.0688 88.9248C87.3456 89.6754 87.5385 90.5742 87.6474 91.6211C87.7564 92.6681 88.2383 101.149 88.2416 102.257C88.233 103.39 88.1909 104.46 88.1151 105.469C88.0394 106.477 87.9621 107.337 87.8833 108.048C87.7926 108.785 87.7256 109.268 87.6822 109.497C87.5264 110.173 87.2366 110.717 86.813 111.129C86.3963 111.56 85.8971 111.882 85.3154 112.097C84.0582 112.561 83.4819 112.645 83.5865 112.351C84.0128 111.021 84.3195 109.512 84.5067 107.823C84.7007 106.152 84.7891 104.542 84.7719 102.993C84.6178 102.922 84.3906 102.941 84.0904 103.052C83.6588 103.211 83.2668 103.622 82.9144 104.285C82.5432 104.955 82.258 105.742 82.0587 106.647C81.8476 107.578 81.7442 108.511 81.7484 109.447C81.7339 110.391 81.8581 111.219 82.121 111.932C82.384 112.645 82.7955 113.154 83.3557 113.459C83.9227 113.783 84.6754 113.772 85.6136 113.426C86.2329 113.197 86.9079 112.831 87.6386 112.327C88.3506 111.83 89.0152 111.233 89.6323 110.537C90.2494 109.84 90.7218 109.069 91.0495 108.224C91.3841 107.397 91.4767 106.521 91.3272 105.595C91.4092 105.586 91.6142 105.564 91.9421 105.528C92.2769 105.512 92.6197 105.545 92.9703 105.629C93.3092 105.738 93.5374 105.953 93.655 106.272C94.0079 107.229 93.8867 108.201 93.2914 109.188C92.6961 110.175 91.7324 111.116 90.4002 112.012C89.075 112.927 87.4929 113.724 85.6539 114.402C83.7587 115.101 82.2258 115.251 81.0552 114.851C79.8915 114.47 79.1056 113.726 78.6973 112.619C78.3651 111.718 78.2912 110.68 78.4756 109.503C78.6412 108.334 79.0384 107.185 79.6672 106.058C80.2773 104.938 81.0889 103.988 82.1021 103.21C81.867 102.977 81.4989 102.643 80.998 102.21C80.4783 101.783 79.9004 101.314 79.2641 100.803C78.616 100.317 77.9689 99.8631 77.3228 99.4406C76.6836 99.0368 76.1013 98.7293 75.5758 98.5181C75.0571 98.3256 74.6709 98.3188 74.4171 98.4977C74.3302 98.551 74.2956 98.4572 74.3133 98.2162C74.3123 97.9821 74.3853 97.6887 74.5324 97.3361C74.6537 96.9716 74.8606 96.6075 75.1528 96.2439C75.4451 95.8804 75.8445 95.6052 76.3512 95.4183Z" fill="#60C3F4"/>
<path d="M70.6488 100.079C71.8497 99.6363 72.8606 99.4873 73.6815 99.6323C74.5023 99.7772 75.1203 100.413 75.5355 101.539C75.8261 102.327 76.0086 103.197 76.083 104.15C76.1455 105.129 76.0945 106.118 75.9298 107.117C75.7652 108.115 75.4884 109.07 75.0995 109.981C74.7106 110.892 74.2041 111.686 73.5801 112.364C72.963 113.06 72.2228 113.568 71.3597 113.886C70.7967 114.094 70.2446 114.244 69.7034 114.337C69.1621 114.43 68.6697 114.366 68.2262 114.146C67.7895 113.945 67.4432 113.497 67.1872 112.803C66.9173 112.071 66.7649 111.051 66.7299 109.742C66.6949 108.433 66.8111 107.101 67.0784 105.744C67.0605 105.58 67.0239 105.423 66.9686 105.273C66.8925 105.067 66.7788 104.874 66.6276 104.696C66.4577 104.524 66.2601 104.479 66.035 104.562C65.7347 104.673 65.5012 104.994 65.3344 105.524C65.1697 106.118 65.0301 106.809 64.9158 107.597C64.8014 108.385 64.7266 109.02 64.6912 109.502C64.6951 109.629 64.6315 109.716 64.5001 109.765C64.3688 109.813 64.2354 109.798 64.1001 109.72C63.946 109.649 63.8881 109.521 63.9266 109.337C63.9729 109 64.0246 108.533 64.0817 107.937C64.1458 107.359 64.2439 106.758 64.376 106.133C64.5082 105.509 64.7066 104.978 64.9712 104.539C65.1696 104.21 65.4283 103.987 65.7473 103.869C66.1226 103.731 66.4352 103.711 66.6851 103.811C66.942 103.929 67.189 104.137 67.4261 104.433C67.7291 103.405 68.1495 102.493 68.6876 101.698C69.2257 100.902 69.8794 100.363 70.6488 100.079ZM71.5053 100.755C71.2989 100.831 71.1178 101.207 70.9619 101.882C70.8061 102.558 70.6774 103.394 70.576 104.391C70.4815 105.406 70.3998 106.427 70.331 107.455C70.3113 107.632 70.2896 107.949 70.2661 108.406C70.2494 108.881 70.2372 109.397 70.2295 109.954C70.2287 110.53 70.2491 111.077 70.2907 111.594C70.3324 112.112 70.4051 112.511 70.5089 112.793C70.6265 113.112 70.7792 113.237 70.9668 113.167C71.1357 113.105 71.2892 112.857 71.4274 112.422C71.5724 112.006 71.7076 111.477 71.8328 110.834C71.9581 110.191 72.0601 109.514 72.1389 108.802C72.2177 108.091 72.2728 107.431 72.3043 106.823C72.3357 106.214 72.3523 105.537 72.354 104.79C72.3558 104.043 72.3304 103.339 72.2778 102.676C72.2134 102.039 72.1155 101.542 71.984 101.186C71.8525 100.829 71.693 100.685 71.5053 100.755Z" fill="#60C3F4"/>
<path d="M60.0014 104.006C60.7708 103.722 61.4222 103.609 61.9556 103.669C62.4702 103.735 62.9103 103.945 63.2759 104.301C63.6227 104.663 63.9033 105.135 64.1178 105.717C64.4846 106.712 64.6746 107.92 64.6879 109.344C64.6824 110.774 64.581 112.176 64.3839 113.549C64.3061 114.089 64.209 114.722 64.0926 115.447C63.9644 116.197 63.7953 116.953 63.5851 117.712C63.3562 118.479 63.0774 119.168 62.7486 119.779C62.4081 120.416 61.9924 120.879 61.5016 121.166C61.2033 121.34 60.9041 121.483 60.6038 121.593C60.116 121.773 59.7327 121.861 59.4542 121.857C58.9603 121.848 58.6823 121.758 58.62 121.589C58.5785 121.477 58.6515 121.386 58.8392 121.317C58.9142 121.289 59.0001 121.204 59.0969 121.062C59.2006 120.938 59.2879 120.8 59.359 120.645C59.8802 119.515 60.337 117.951 60.7296 115.951C61.0521 114.34 61.2501 112.796 61.3238 111.32C61.4043 109.862 61.3303 108.418 61.1017 106.989C61.0334 106.631 60.9578 106.339 60.8747 106.114C60.7294 105.719 60.5599 105.462 60.3663 105.342C60.1727 105.221 59.982 105.196 59.7944 105.265C59.4191 105.403 59.0671 105.778 58.7384 106.39C58.3909 107.008 58.1604 107.626 58.047 108.243C57.8536 108.933 57.7141 109.624 57.6284 110.316C57.5308 111.034 57.4549 111.638 57.4007 112.127C57.3741 112.286 57.2951 112.39 57.1638 112.438C57.0512 112.48 56.9272 112.461 56.7919 112.383C56.6565 112.305 56.5987 112.178 56.6184 112C56.6923 111.333 56.8032 110.535 56.951 109.607C57.0802 108.685 57.2873 107.831 57.5725 107.044C57.8341 106.308 58.1712 105.661 58.5839 105.104C58.9847 104.572 59.4573 104.206 60.0014 104.006Z" fill="#60C3F4"/>
<path d="M51.7623 106.788C53.1322 106.283 54.2409 106.226 55.0885 106.617C55.9173 107.014 56.5185 107.72 56.8922 108.733C57.1759 109.503 57.3278 110.406 57.3479 111.443C57.3807 112.284 57.3326 113.165 57.2035 114.086C57.0813 115.027 56.8692 115.925 56.5672 116.783C56.2721 117.659 55.8689 118.415 55.3574 119.052C54.8529 119.707 54.2347 120.169 53.5029 120.439C52.5646 120.785 51.7493 120.915 51.0569 120.829C50.3526 120.769 49.8794 120.411 49.6372 119.754C49.4573 119.266 49.4294 118.584 49.5536 117.707C49.7053 116.499 50.1668 115.381 50.9379 114.35C51.709 113.32 52.7059 112.526 53.9285 111.968C53.9263 111.095 53.8633 110.404 53.7397 109.896C53.7239 109.795 53.6987 109.698 53.6641 109.604C53.6364 109.529 53.6052 109.444 53.5706 109.351C53.3423 108.731 53.0355 108.333 52.6502 108.155C52.2719 107.996 51.8763 107.993 51.4635 108.145C50.6941 108.429 50.0912 108.875 49.6548 109.484C49.2184 110.092 48.8952 110.776 48.685 111.536C48.4561 112.303 48.2928 113.045 48.1953 113.763C48.1322 114.17 48.0869 114.538 48.0593 114.868C48.0387 115.217 48.015 115.471 47.9884 115.63C47.9499 115.815 47.8744 115.928 47.7618 115.969C47.6492 116.011 47.5218 115.983 47.3796 115.886C47.2442 115.808 47.1864 115.68 47.2061 115.503C47.2701 114.925 47.3692 114.153 47.5032 113.187C47.6372 112.221 47.8622 111.328 48.178 110.508C48.5155 109.573 48.9657 108.8 49.5285 108.187C50.0795 107.6 50.8241 107.134 51.7623 106.788ZM53.8636 112.92C53.1368 113.55 52.6067 114.396 52.2731 115.457C51.9208 116.525 51.8155 117.597 51.957 118.675C51.9729 118.776 51.9946 118.863 52.0223 118.938C52.0312 119.02 52.0495 119.099 52.0772 119.174C52.2156 119.549 52.3974 119.695 52.6226 119.612C52.8102 119.543 52.9588 119.339 53.0683 119C53.2371 118.533 53.3762 117.928 53.4856 117.184C53.6019 116.459 53.6842 115.757 53.7324 115.078C53.7806 114.4 53.815 113.886 53.8356 113.538L53.8636 112.92Z" fill="#60C3F4"/>
<path d="M43.9528 107.597C45.0975 107.175 46.1235 108.473 47.1232 108.872C48.1229 109.271 48.0859 111.384 48.5287 112.585C48.681 112.998 48.7932 113.447 48.8654 113.931C48.9377 114.416 48.9294 114.856 48.8407 115.252C48.7519 115.647 48.5386 115.907 48.2008 116.031C47.9944 116.107 47.8201 116.097 47.6778 116C47.6118 116.515 47.527 117.036 47.4235 117.565C47.3199 118.093 47.2198 118.631 47.1232 119.178C47.0029 119.777 46.8529 120.44 46.6734 121.167C46.482 121.919 46.2066 122.618 45.8473 123.262C45.4949 123.925 45.0194 124.399 44.4209 124.683C44.3528 124.73 44.2812 124.767 44.2062 124.794C44.1123 124.829 44.0279 124.86 43.9528 124.888C43.7464 124.964 43.5272 125.034 43.2951 125.098C43.063 125.163 42.8872 125.206 42.7677 125.229C42.7232 125.224 42.6743 125.178 42.6209 125.091C42.5676 125.004 42.5972 124.94 42.7098 124.899C42.7848 124.871 42.9142 124.759 43.0978 124.564C43.2884 124.387 43.3333 124.104 43.2324 123.715C42.7856 122.387 42.3856 121.043 42.0326 119.681C41.6608 118.326 41.4342 117.162 41.353 116.19C41.2995 115.698 41.2978 115.145 41.348 114.529C41.3982 113.914 41.5161 113.338 41.7016 112.8C41.8871 112.263 42.1399 111.85 42.4598 111.561C42.0845 111.7 41.732 111.958 41.4022 112.335C41.0605 112.738 40.7737 113.174 40.5418 113.644C40.291 114.12 40.1203 114.524 40.0295 114.856C39.8312 115.59 39.6808 116.338 39.5783 117.1C39.4639 117.889 39.3881 118.492 39.3507 118.911C39.329 119.026 39.2806 119.097 39.2055 119.124C39.1117 119.159 39.0065 119.134 38.8899 119.049C38.7734 118.964 38.6908 118.856 38.6424 118.725C38.6286 118.687 38.6241 118.646 38.629 118.602C38.6152 118.564 38.6107 118.523 38.6157 118.479C38.7043 117.679 38.0971 117.037 38.2538 116.19C37.6221 114.411 38.3315 112.633 38.6424 111.858C38.9602 111.101 39.9284 110.352 40.4793 109.765C40.4793 108.406 43.144 107.293 43.9528 107.597ZM45.6318 111.319C45.4254 111.395 45.2432 111.537 45.0852 111.744C44.9273 111.952 44.8345 112.22 44.8069 112.55C44.7538 113.273 44.7634 114.08 44.8358 114.97C44.9082 115.86 45.0053 116.73 45.127 117.58C45.2557 118.449 45.3779 119.214 45.4936 119.875C45.5976 120.562 45.6733 121.056 45.7208 121.358C45.8777 120.917 46.0484 120.31 46.2329 119.539C46.3986 118.774 46.5549 118.013 46.7018 117.255C46.83 116.505 46.9187 115.907 46.968 115.463C46.7901 115.038 46.8171 114.591 47.0491 114.122C47.281 113.652 47.4626 113.191 47.5939 112.738L47.4797 112.428C47.452 112.353 47.4174 112.259 47.3759 112.147C47.3156 112.041 47.2588 111.945 47.2054 111.858C47.0009 111.592 46.7514 111.407 46.4571 111.302C46.1508 111.223 45.8758 111.229 45.6318 111.319Z" fill="#60C3F4"/>
</svg>
