<svg width="90" height="90" viewBox="0 0 90 90" fill="none" xmlns="http://www.w3.org/2000/svg">
<path d="M89.9107 44.9554C89.9107 69.7835 69.7835 89.9107 44.9554 89.9107C20.1272 89.9107 0 69.7835 0 44.9554C0 20.1272 20.1272 0 44.9554 0C69.7835 0 89.9107 20.1272 89.9107 44.9554Z" fill="#D8CFB7"/>
<path d="M23.9719 48.8542C23.9603 48.775 23.994 48.7296 24.0732 48.718C24.3107 48.6832 24.775 48.8173 25.4662 49.1203C26.588 49.6027 27.7822 49.7512 29.0487 49.5656C31.1067 49.264 33.1453 48.278 35.1644 46.6076C37.2743 45.0047 38.9642 43.0187 40.2341 40.6495C41.5156 38.3595 41.9881 36.0668 41.6518 33.7713C41.385 31.9507 41.3703 31.0231 41.6078 30.9883C41.8452 30.9535 42.4014 31.438 43.2761 32.4417C43.9462 33.1521 44.5941 33.987 45.2198 34.9464C46.8787 36.8864 48.719 38.9614 50.7408 41.1716C52.8534 43.4494 54.9486 45.6084 57.0264 47.6487C59.1833 49.6774 61.2147 51.4011 63.1205 52.8198C65.1171 54.306 66.8346 55.2671 68.2731 55.7031C68.692 55.8034 69.0667 56.1528 69.3969 56.7513C69.8179 57.4173 70.0632 57.9877 70.1328 58.4626C70.2372 59.175 70.0346 59.4473 69.5248 59.2794C67.4184 58.6987 65.0888 57.423 62.5361 55.4523C59.995 53.5608 57.3958 51.2735 54.7387 48.5904C52.1724 45.9748 49.7132 43.2628 47.3611 40.4541C47.0042 41.8809 46.1502 43.5019 44.7991 45.317C43.5387 47.1996 41.927 48.8912 39.9638 50.3917C38.0798 51.8806 36.0296 52.7874 33.8132 53.1122C31.4386 53.4602 29.0889 52.8747 26.7641 51.3557C24.9838 50.2421 24.0531 49.4083 23.9719 48.8542Z" fill="#1E1E1E"/>
</svg>
