<svg width="175" height="176" viewBox="0 0 175 176" fill="none" xmlns="http://www.w3.org/2000/svg">
<path d="M110.217 121.858C100.897 128.252 90.7539 130.393 79.7867 128.281C68.8196 126.169 60.0996 120.396 53.6268 110.961C47.1541 101.526 44.9063 91.3121 46.8835 80.3199C48.8607 69.3276 54.5093 60.6346 63.8293 54.2408C73.1492 47.847 83.2928 45.706 94.26 47.8179C105.227 49.9299 113.947 55.7034 120.42 65.1384C126.893 74.5734 129.14 84.787 127.163 95.7793C125.186 106.772 119.537 115.465 110.217 121.858Z" fill="#F9F6EA"/>
<g filter="url(#filter0_d_76_142)">
<path d="M96.6329 132.916C98.9443 129.483 104.247 126.529 104.087 128.564C103.927 130.599 98.0391 152.254 98.0391 152.254L101.831 153.365C101.831 153.365 102.444 154.892 101.374 154.925C100.304 154.957 93.2928 153.796 91.9687 152.169C90.6445 150.542 92.4255 150.61 92.4255 150.61L96.2171 151.721C96.2171 151.721 94.3216 136.35 96.6329 132.916Z" fill="#60C3F4"/>
<path d="M89.4165 132.835C92.9291 133.864 94.9009 140.717 93.867 144.246C92.8331 147.776 89.8342 149.677 86.3216 148.648C82.809 147.619 81.3104 144.4 82.3443 140.871C83.3782 137.342 85.9039 131.806 89.4165 132.835ZM89.4377 138.012C86.6637 137.199 84.9388 139.011 84.2319 141.424C83.5251 143.837 84.0045 146.276 86.7784 147.089C89.5524 147.902 91.2725 146.106 91.9794 143.693C92.6862 141.281 92.2116 138.825 89.4377 138.012Z" fill="#60C3F4"/>
<path d="M77.0383 131.148C80.5509 132.177 82.3726 137.47 81.3388 140.999C80.3049 144.528 77.306 146.43 73.7934 145.401C70.2808 144.372 68.7822 141.152 69.8161 137.623C70.85 134.094 73.5257 130.119 77.0383 131.148ZM76.9095 134.764C74.1355 133.952 72.4106 135.763 71.7037 138.176C70.9968 140.589 71.4763 143.029 74.2502 143.841C77.0242 144.654 78.7443 142.859 79.4511 140.446C80.158 138.033 79.6834 135.577 76.9095 134.764Z" fill="#60C3F4"/>
<path d="M65.2986 126.447C65.8931 126.557 71.8104 129.863 71.8104 129.863L65.8871 144.469L64.0816 143.94L67.063 133.764C67.063 133.764 66.8713 133.274 64.4861 132.065C62.101 130.856 62.568 126.246 64.1096 126.225C65.6512 126.205 64.7042 126.336 65.2986 126.447Z" fill="#60C3F4"/>
<path d="M61.6368 123.029C64.6077 123.899 61.1244 130.953 60.4815 133.634L58.6103 133.086C58.9406 131.472 58.3176 130.131 56.1181 129.486C54.2305 128.933 53.4155 129.586 53.103 130.653C52.6654 132.146 53.7518 132.696 55.727 133.863C57.4211 134.894 59.2669 136.077 58.6129 138.309C58.0166 140.344 56.0995 141.048 53.5717 140.307C50.8962 139.524 49.5554 137.652 50.0674 135.235L51.9386 135.783C51.722 137.253 52.3002 138.26 54.0073 138.76C55.4846 139.192 56.3983 138.872 56.6964 137.854C57.0811 136.541 55.9318 135.902 54.5323 135.082C52.4355 133.844 50.4604 132.677 51.1865 130.198C52.8152 124.639 58.6987 122.168 61.6368 123.029Z" fill="#60C3F4"/>
</g>
<g filter="url(#filter1_d_76_142)">
<path d="M77.7775 42.2474C75.465 45.6854 69.8381 49.0251 69.9984 46.9882C70.1588 44.9513 76.0539 23.2716 76.0539 23.2716L72.2624 22.1609C72.2624 22.1609 71.6494 20.6323 72.7197 20.5998C73.7901 20.5672 80.8009 21.7269 82.1246 23.355C83.4483 24.9831 81.6672 24.9161 81.6672 24.9161L77.8758 23.8053C77.8758 23.8053 80.09 38.8095 77.7775 42.2474Z" fill="#C92460"/>
<path d="M84.6709 42.7085C81.1584 41.6795 79.1887 34.8194 80.2237 31.2864C81.2587 27.7534 84.2584 25.8487 87.7708 26.8777C91.2833 27.9067 92.7809 31.129 91.7459 34.662C90.7109 38.1949 88.1833 43.7375 84.6709 42.7085ZM84.6513 37.526C87.4252 38.3386 89.1507 36.5246 89.8584 34.109C90.566 31.6934 90.0874 29.2515 87.3135 28.4388C84.5396 27.6262 82.8189 29.4238 82.1113 31.8394C81.4036 34.255 81.8775 36.7133 84.6513 37.526Z" fill="#C92460"/>
<path d="M97.0492 44.3934C93.5368 43.3644 91.7165 38.0662 92.7516 34.5332C93.7866 31.0003 96.7862 29.0956 100.299 30.1246C103.811 31.1536 105.309 34.3758 104.274 37.9088C103.239 41.4418 100.562 45.4224 97.0492 44.3934ZM97.1792 40.7728C99.953 41.5854 101.679 39.7714 102.386 37.3558C103.094 34.9402 102.615 32.4983 99.8413 31.6857C97.0675 30.873 95.3468 32.6706 94.6391 35.0862C93.9314 37.5018 94.4053 39.9602 97.1792 40.7728Z" fill="#C92460"/>
<path d="M108.788 49.0956C108.194 48.985 102.277 45.6774 102.277 45.6774L108.205 31.0543L110.011 31.5833L107.026 41.7714C107.026 41.7714 107.217 42.2615 109.602 43.4711C111.987 44.6808 111.519 49.2959 109.977 49.3169C108.435 49.3379 109.382 49.2061 108.788 49.0956Z" fill="#C92460"/>
<path d="M112.449 52.5155C109.478 51.6452 112.964 44.583 113.608 41.899L115.479 42.4471C115.148 44.0631 115.771 45.4053 117.97 46.0496C119.858 46.6026 120.673 45.9493 120.986 44.8812C121.424 43.3858 120.337 42.8356 118.362 41.6682C116.669 40.6367 114.823 39.4537 115.478 37.2189C116.075 35.1813 117.992 34.4762 120.52 35.2167C123.195 36.0004 124.535 37.874 124.023 40.2932L122.152 39.745C122.369 38.2741 121.791 37.2662 120.084 36.7661C118.607 36.3334 117.693 36.6544 117.394 37.6733C117.009 38.9879 118.158 39.6278 119.558 40.4482C121.654 41.6869 123.412 42.8007 122.902 45.3355C121.791 50.8579 115.387 53.3762 112.449 52.5155Z" fill="#C92460"/>
</g>
<defs>
<filter id="filter0_d_76_142" x="45.9599" y="122.862" width="62.1306" height="40.0636" filterUnits="userSpaceOnUse" color-interpolation-filters="sRGB">
<feFlood flood-opacity="0" result="BackgroundImageFix"/>
<feColorMatrix in="SourceAlpha" type="matrix" values="0 0 0 0 0 0 0 0 0 0 0 0 0 0 0 0 0 0 127 0" result="hardAlpha"/>
<feOffset dy="4"/>
<feGaussianBlur stdDeviation="2"/>
<feComposite in2="hardAlpha" operator="out"/>
<feColorMatrix type="matrix" values="0 0 0 0 0 0 0 0 0 0 0 0 0 0 0 0 0 0 0.25 0"/>
<feBlend mode="normal" in2="BackgroundImageFix" result="effect1_dropShadow_76_142"/>
<feBlend mode="normal" in="SourceGraphic" in2="effect1_dropShadow_76_142" result="shape"/>
</filter>
<filter id="filter1_d_76_142" x="65.9951" y="20.5991" width="62.1355" height="40.0817" filterUnits="userSpaceOnUse" color-interpolation-filters="sRGB">
<feFlood flood-opacity="0" result="BackgroundImageFix"/>
<feColorMatrix in="SourceAlpha" type="matrix" values="0 0 0 0 0 0 0 0 0 0 0 0 0 0 0 0 0 0 127 0" result="hardAlpha"/>
<feOffset dy="4"/>
<feGaussianBlur stdDeviation="2"/>
<feComposite in2="hardAlpha" operator="out"/>
<feColorMatrix type="matrix" values="0 0 0 0 0 0 0 0 0 0 0 0 0 0 0 0 0 0 0.25 0"/>
<feBlend mode="normal" in2="BackgroundImageFix" result="effect1_dropShadow_76_142"/>
<feBlend mode="normal" in="SourceGraphic" in2="effect1_dropShadow_76_142" result="shape"/>
</filter>
</defs>
</svg>
