<svg width="93" height="129" viewBox="0 0 93 129" fill="none" xmlns="http://www.w3.org/2000/svg">
<path d="M6 63.3203C6 52.018 9.97287 42.4424 17.9186 34.5936C25.8643 26.7447 35.5581 22.8203 47 22.8203C58.4419 22.8203 68.1357 26.7447 76.0814 34.5936C84.0271 42.4424 88 52.018 88 63.3203C88 74.6226 84.0271 84.1982 76.0814 92.0471C68.1357 99.8959 58.4419 103.82 47 103.82C35.5581 103.82 25.8643 99.8959 17.9186 92.0471C9.97287 84.1982 6 74.6226 6 63.3203Z" fill="#858964"/>
<path d="M15.6251 30.1553C15.3238 34.2835 12.1877 39.4798 11.316 37.6343C10.4443 35.7888 4.80241 14.0678 4.80241 14.0678L0.959649 14.9863C0.959649 14.9863 -0.331118 13.9653 0.581915 13.4059C1.49495 12.8466 8.15679 10.3729 10.114 11.1276C12.0711 11.8822 10.4917 12.7079 10.4917 12.7079L6.64894 13.6264C6.64894 13.6264 15.9265 26.0272 15.6251 30.1553Z" fill="#C92460"/>
<path d="M21.9295 26.6429C18.3696 27.4938 13.255 22.5237 12.4001 18.9471C11.5452 15.3705 13.204 12.2307 16.7639 11.3798C20.3239 10.5289 23.2232 12.5793 24.0781 16.1559C24.933 19.7325 25.4895 25.792 21.9295 26.6429ZM19.3405 22.1595C22.1519 21.4875 22.7495 19.0585 22.165 16.6131C21.5805 14.1677 19.9531 12.2882 17.1417 12.9602C14.3303 13.6321 13.7287 16.0445 14.3132 18.4899C14.8976 20.9353 16.5291 22.8315 19.3405 22.1595Z" fill="#C92460"/>
<path d="M33.5117 21.9611C29.9518 22.812 25.7421 19.1219 24.8873 15.5453C24.0324 11.9687 25.6912 8.82881 29.2511 7.97792C32.8111 7.12702 35.7104 9.17741 36.5653 12.754C37.4201 16.3306 37.0717 21.1102 33.5117 21.9611ZM31.8277 18.7576C34.639 18.0857 35.2367 15.6567 34.6522 13.2113C34.0677 10.7659 32.4402 8.88631 29.6289 9.55828C26.8175 10.2302 26.2158 12.6426 26.8003 15.088C27.3848 17.5334 29.0163 19.4296 31.8277 18.7576Z" fill="#C92460"/>
<path d="M46.0362 20.2125C45.4653 20.4116 38.6873 20.4801 38.6873 20.4801L36.5763 4.86056L38.4062 4.42318L40.8714 14.7371C40.8714 14.7371 41.2809 15.0669 43.9517 14.9322C46.6225 14.7974 48.5062 19.0311 47.1783 19.8143C45.8503 20.5976 46.6071 20.0133 46.0362 20.2125Z" fill="#C92460"/>
<path d="M50.9117 21.3607C47.9007 22.0804 47.4218 14.228 46.6486 11.5815L48.545 11.1283C49.0598 12.6934 50.2665 13.5481 52.4956 13.0153C54.4087 12.558 54.7921 11.5871 54.5337 10.5058C54.1718 8.99199 52.9557 9.05406 50.6619 9.02199C48.6794 8.96826 46.4901 8.85845 45.9494 6.59605C45.4563 4.53326 46.771 2.97045 49.3329 2.35812C52.0444 1.71001 54.1378 2.66927 54.8934 5.02102L52.9969 5.4743C52.4554 4.09138 51.4533 3.50435 49.7233 3.91787C48.2261 4.27572 47.5921 5.00759 47.8386 6.03898C48.1567 7.36981 49.4719 7.3544 51.0938 7.3712C53.5287 7.40473 55.8225 7.4368 56.4229 9.94874C57.7696 15.583 53.8894 20.649 50.9117 21.3607Z" fill="#C92460"/>
<path d="M76.6194 97.441C76.8084 93.3062 79.8021 88.0266 80.7237 89.8477C81.6452 91.6689 87.8754 113.228 87.8754 113.228L91.6918 112.206C91.6918 112.206 93.0098 113.191 92.1123 113.775C91.2148 114.359 84.6227 117.013 82.6457 116.312C80.6687 115.611 82.2252 114.742 82.2252 114.742L86.0415 113.72C86.0415 113.72 76.4304 101.576 76.6194 97.441Z" fill="#AA7828"/>
<path d="M70.4128 101.124C73.9483 100.176 79.1961 105.005 80.1479 108.557C81.0996 112.109 79.5268 115.293 75.9913 116.241C72.4558 117.188 69.5018 115.217 68.5501 111.665C67.5983 108.113 66.8773 102.071 70.4128 101.124ZM73.1227 105.535C70.3307 106.283 69.7992 108.727 70.45 111.156C71.1007 113.585 72.7787 115.419 75.5708 114.671C78.3628 113.923 78.8987 111.495 78.248 109.066C77.5972 106.638 75.9148 104.787 73.1227 105.535Z" fill="#AA7828"/>
<path d="M58.9621 106.118C62.4976 105.171 66.806 108.745 67.7578 112.297C68.7096 115.849 67.1367 119.033 63.6012 119.981C60.0657 120.928 57.1117 118.957 56.16 115.405C55.2082 111.853 55.4266 107.066 58.9621 106.118ZM60.7326 109.275C57.9406 110.023 57.4091 112.467 58.0599 114.896C58.7106 117.325 60.3886 119.159 63.1807 118.411C65.9727 117.663 66.5086 115.235 65.8579 112.807C65.2071 110.378 63.5247 108.527 60.7326 109.275Z" fill="#AA7828"/>
<path d="M46.4898 108.207C47.0551 107.992 53.8287 107.74 53.8287 107.74L56.3635 123.296L54.5462 123.783L51.8015 113.54C51.8015 113.54 51.3832 113.221 48.7171 113.428C46.0509 113.636 44.0528 109.455 45.359 108.636C46.6651 107.817 45.9245 108.421 46.4898 108.207Z" fill="#AA7828"/>
<path d="M41.5849 107.191C44.5752 106.39 45.2673 114.227 46.1122 116.851L44.2288 117.356C43.6717 115.805 42.4422 114.984 40.2284 115.577C38.3285 116.086 37.9716 117.067 38.2593 118.141C38.6621 119.644 39.8762 119.549 42.17 119.519C44.1532 119.519 46.3446 119.569 46.9467 121.816C47.4956 123.864 46.2239 125.462 43.6796 126.144C40.9867 126.866 38.868 125.964 38.0488 123.633L39.9322 123.129C40.5112 124.496 41.5288 125.056 43.247 124.596C44.7339 124.197 45.3478 123.448 45.0733 122.424C44.7192 121.102 43.4048 121.153 41.7831 121.181C39.3482 121.213 37.0544 121.244 36.3859 118.749C34.8866 113.153 38.6276 107.984 41.5849 107.191Z" fill="#AA7828"/>
</svg>
